<?xml version="1.0" encoding="iso-8859-1"?>
<!-- Generator: Adobe Illustrator 19.0.0, SVG Export Plug-In . SVG Version: 6.00 Build 0)  -->
<svg xmlns="http://www.w3.org/2000/svg" xmlns:xlink="http://www.w3.org/1999/xlink" version="1.1" id="Layer_1" x="0px" y="0px" viewBox="0 0 512.853 512.853" style="enable-background:new 0 0 512.853 512.853;" xml:space="preserve" width="512px" height="512px">
<g transform="translate(1 1)">
	<g>
		<g>
			<path d="M376.12,330.947c-10.24-5.973-22.187-7.68-31.573-5.12c-6.827,1.707-12.8,5.973-17.067,12.8     c-8.533,11.093-19.627,23.04-22.187,24.747c-20.48,13.653-36.693,11.947-53.76-5.12l-90.866-90.866     c-0.378-0.487-0.806-0.928-1.294-1.294l0,0l-5.973-5.973c-17.067-17.92-18.773-33.28-5.12-53.76     c2.56-2.56,14.507-13.653,24.747-22.187c5.973-4.267,11.093-10.24,12.8-17.067c2.56-9.387,0-20.48-5.973-31.573     c-1.707-2.56-36.693-62.293-69.12-79.36c-16.213-8.533-35.84-5.12-49.493,7.68L39.907,85.187     c-42.667,42.667-51.2,92.16-25.6,146.773c8.533,17.92,21.333,35.84,37.547,52.053l174.933,174.933     c13.653,13.653,27.307,24.747,41.813,32.427c24.747,13.653,47.787,20.48,69.973,20.48c31.573,0,60.587-13.653,87.893-40.107     L447.8,449.56c13.653-12.8,16.213-33.28,7.68-49.493C438.413,367.64,378.68,332.653,376.12,330.947z M435,438.467L413.667,459.8     c-40.107,40.107-85.333,46.08-137.387,17.067c-12.8-6.827-25.6-17.067-37.547-29.013L62.947,272.067     c-15.36-15.36-26.453-31.573-34.133-47.787c-22.187-47.787-14.507-89.6,23.04-127.147L73.187,75.8     c5.12-4.267,11.947-6.827,17.92-6.827c4.267,0,8.533,0.853,11.093,2.56c28.16,14.507,62.293,71.68,62.293,72.533     c4.267,6.827,5.973,13.653,4.267,18.773c-0.853,2.56-2.56,5.12-5.973,6.827l-0.853,0.853     c-6.827,6.827-24.747,21.333-28.16,26.453c-5.22,7.706-8.689,15.338-10.434,22.857c-6.162-12.098-11.083-26.147-12.606-41.63     c-0.853-5.12-4.267-8.533-9.387-7.68c-5.12,0.853-8.533,5.12-7.68,9.387c5.973,59.733,52.907,98.133,54.613,99.84     c0.504,0.252,1.007,0.501,1.511,0.731l88.942,89.723c0.653,0.653,1.307,1.284,1.962,1.903c0.186,0.225,0.385,0.444,0.598,0.657     c0.853,1.707,39.253,39.253,98.133,45.227h0.853c4.267,0,8.533-3.413,8.533-7.68c0-5.12-3.413-8.533-7.68-9.387     c-18.05-1.775-34.144-7.144-47.477-13.398c6.57-1.915,13.289-5.126,20.17-9.642c5.973-3.413,20.48-20.48,26.453-28.16     l0.853-0.853c1.707-3.413,3.413-5.12,6.827-5.973c5.12-0.853,11.947,0.853,18.773,4.267c0,0,58.027,34.133,72.533,62.293     C444.387,418.84,442.68,430.787,435,438.467z" fill="#757c94"/>
			<path d="M365.88-1c-80.213,0-145.067,64.853-145.067,145.067c0,23.04,5.973,46.08,16.213,66.56l-16.213,68.267     c-0.853,3.413,0,6.827,2.56,8.533c1.707,1.707,3.413,2.56,5.973,2.56c0.853,0,1.707,0,2.56,0l63.147-19.627     c21.333,11.947,46.08,18.773,70.827,18.773c80.213,0,145.067-64.853,145.067-145.067S446.093-1,365.88-1z M366.733,272.067     c-23.04,0-46.08-5.973-65.707-17.92c-0.853-0.853-2.56-0.853-4.267-0.853c-0.853,0-1.707,0.853-2.56,0l-52.907,15.36     l13.653-57.173c0.853-1.707,0-4.267-0.853-5.973c-10.24-18.773-15.36-40.107-15.36-61.44c0-70.827,57.173-128,128-128     s128,57.173,128,128S437.56,272.067,366.733,272.067z" fill="#757c94"/>
			<path d="M465.72,138.947L371.853,45.08c-1.707-1.707-3.413-2.56-5.973-2.56s-4.267,0.853-5.973,2.56l-93.867,93.867     c-3.413,3.413-3.413,8.533,0,11.947l25.6,25.6c1.707,1.707,3.413,2.56,5.973,2.56s4.267-0.853,5.973-2.56l2.56-2.56v47.787     c0,5.12,3.413,8.533,8.533,8.533h102.4c5.12,0,8.533-3.413,8.533-8.533v-47.787l2.56,2.56c1.707,1.707,3.413,2.56,5.973,2.56     s5.12-0.853,5.973-2.56l25.6-25.6c1.707-1.707,2.56-3.413,2.56-5.973S467.427,140.653,465.72,138.947z M408.547,213.187h-85.333     v-56.32L365.88,114.2l42.667,42.667V213.187z M435,158.573L372.707,96.28c-0.853-1.707-2.56-2.56-4.267-2.56     c-0.853,0-1.706,0-2.559,0c0,0-0.001,0-0.001,0c-2.56,0-4.267,0.853-5.973,2.56l-51.2,51.2c0,0-0.001,0.001-0.001,0.001     l-11.092,11.092L283.96,144.92L366.733,63l81.92,81.92L435,158.573z" fill="#757c94"/>
		</g>
	</g>
</g>
<g>
</g>
<g>
</g>
<g>
</g>
<g>
</g>
<g>
</g>
<g>
</g>
<g>
</g>
<g>
</g>
<g>
</g>
<g>
</g>
<g>
</g>
<g>
</g>
<g>
</g>
<g>
</g>
<g>
</g>
</svg>
