<?xml version="1.0" encoding="UTF-8" standalone="no"?>
<svg
   xmlns:dc="http://purl.org/dc/elements/1.1/"
   xmlns:cc="http://creativecommons.org/ns#"
   xmlns:rdf="http://www.w3.org/1999/02/22-rdf-syntax-ns#"
   xmlns:svg="http://www.w3.org/2000/svg"
   xmlns="http://www.w3.org/2000/svg"
   xml:space="preserve"
   style="enable-background:new 0 0 512 512;"
   viewBox="0 0 512 512"
   y="0px"
   x="0px"
   id="Layer_1"
   version="1.1"><metadata
     id="metadata4514"><rdf:RDF><cc:Work
         rdf:about=""><dc:format>image/svg+xml</dc:format><dc:type
           rdf:resource="http://purl.org/dc/dcmitype/StillImage" /><dc:title></dc:title></cc:Work></rdf:RDF></metadata><defs
     id="defs4512" /><g
     style="fill:#757c94;fill-opacity:1"
     id="g4507"
     transform="translate(1 1)"><g
       style="fill:#757c94;fill-opacity:1"
       id="g4505"><g
         style="fill:#757c94;fill-opacity:1"
         id="g4503"><path
           style="fill:#757c94;fill-opacity:1"
           id="path4497"
           d="M502.467,387.907l-72.533-66.56c-21.333-19.627-54.613-19.627-75.947,0l-30.114,27.963L293.4,321.347     c-21.333-19.627-54.613-19.627-75.947,0l-30.65,27.799l-29.937-27.799c-21.333-19.627-54.613-19.627-75.947,0l-73.387,66.56     C2.413,392.173-1,399-1,406.68c0,7.68,2.56,14.507,7.68,19.627s11.947,7.68,18.773,7.68c5.853,0,11.078-1.886,16.213-5.111     v73.378c0,5.12,3.413,8.533,8.533,8.533h51.2h34.133h51.2h51.2h34.133h51.2h51.2H408.6h51.2c5.12,0,8.533-3.413,6.827-8.533     V427.16c5.12,4.267,11.093,6.827,17.92,6.827s13.653-2.56,18.773-7.68c5.12-5.12,7.68-11.947,7.68-19.627     C511,399.853,507.587,393.027,502.467,387.907z M228.547,333.293c7.68-6.827,17.067-10.24,26.453-10.24     c10.24,0,19.627,3.413,25.6,10.24l72.533,66.56c2.56,1.707,3.413,4.267,3.413,6.827s-0.853,5.12-2.56,6.827     c-2.004,1.603-4.196,2.443-6.4,2.541c-2.204-0.097-4.396-0.937-6.4-2.541l-11.947-10.24c-0.271-0.203-0.555-0.384-0.846-0.554     l-50.354-45.526c-13.653-12.8-32.427-12.8-46.08,0l-50.761,45.273c-0.45,0.233-0.884,0.5-1.292,0.807l-11.947,10.24     c-2.01,1.608-4.397,2.448-6.718,2.541c-2.298-0.093-4.475-0.934-6.082-2.541c-1.707-1.707-2.56-4.267-2.56-6.827     c0.853-2.56,1.707-5.12,3.413-6.827l9.045-8.3c0.114-0.078,0.231-0.151,0.342-0.234l27.307-24.747     c0.527-0.527,0.962-1.057,1.327-1.609L228.547,333.293z M18.627,413.507c-1.707-1.707-2.56-4.267-2.56-6.827     s0.853-4.267,3.413-6.827l72.533-66.56c7.68-6.827,17.067-10.24,26.453-10.24c10.24,0,19.627,3.413,25.6,9.387l29.013,26.453     l-14.507,13.653l-17.067-15.36c-13.653-12.8-32.427-12.8-46.08,0l-63.147,56.32C28.013,416.92,22.04,416.92,18.627,413.507z      M58.733,414.36l7.352-6.695l41.288-36.825c3.757-3.339,7.718-5.034,11.683-5.106c4.065,0.072,8.018,1.767,11.357,5.106     l16.213,14.507l-2.559,2.559l-0.001,0.001c-4.16,3.467-7.193,8.623-8.185,14.555c-0.229,1.369-0.349,2.779-0.349,4.219     s0.09,2.85,0.27,4.224c0.12,0.916,0.28,1.817,0.48,2.7c0.1,0.441,0.21,0.879,0.33,1.311c0.24,0.865,0.52,1.712,0.84,2.538     c0.32,0.827,0.68,1.633,1.08,2.418c0.4,0.785,0.84,1.548,1.32,2.288c0.96,1.48,2.08,2.867,3.36,4.147     c0.558,0.558,1.139,1.08,1.736,1.577c0.046,0.038,0.091,0.079,0.137,0.117c0.586,0.482,1.191,0.93,1.808,1.353     c0.056,0.038,0.111,0.078,0.167,0.115c0.621,0.418,1.256,0.806,1.904,1.166c0.057,0.032,0.115,0.064,0.172,0.095     c0.646,0.352,1.303,0.677,1.972,0.972c0.076,0.034,0.153,0.065,0.229,0.098c0.644,0.277,1.296,0.532,1.958,0.757     c0.145,0.05,0.292,0.092,0.437,0.139c0.49,0.157,0.984,0.3,1.481,0.428c0.449,0.118,0.901,0.218,1.355,0.313     c0.167,0.034,0.335,0.069,0.503,0.099c7.251,1.378,14.973-0.133,20.977-4.568c0.05-0.031,0.1-0.062,0.151-0.093v64.845h-34.133     v-42.667c0-5.12-3.413-8.533-8.533-8.533H101.4c-5.12,0-8.533,3.413-8.533,8.533v42.667H58.733V414.36z M109.933,493.72v-34.133     H127v34.133H109.933z M195.267,414.36l7.352-6.695l41.288-36.825c3.757-3.339,7.718-5.034,11.683-5.106     c4.065,0.072,8.018,1.767,11.357,5.106l47.787,43.52v79.36H280.6v-42.667c0-5.12-3.413-8.533-8.533-8.533h-34.133     c-5.12,0-8.533,3.413-8.533,8.533v42.667h-34.133V414.36z M246.467,493.72v-34.133h17.067v34.133H246.467z M383,493.72v-34.133     h17.067v34.133H383z M451.267,493.72h-34.133v-42.667c0-5.12-3.413-8.533-8.533-8.533h-34.133c-5.12,0-8.533,3.413-8.533,8.533     v42.667H331.8v-65.132c10.265,7.923,25.298,7.407,34.987-2.282c5.12-5.12,7.68-12.8,7.68-19.627c0-0.122-0.009-0.244-0.011-0.366     c0.003-0.162,0.011-0.326,0.011-0.487c0-6.827-3.413-13.653-8.533-18.773l-2.48-1.653l16.987-14.56     c3.705-3.294,7.609-4.982,11.52-5.098c3.911,0.116,7.815,1.804,11.52,5.098l47.787,43.52V493.72z M490.52,414.36     c-4.267,3.413-9.387,3.413-13.653,0l-62.293-56.32c-4.927-4.311-10.301-7.28-16.117-8.603     c-10.538-2.719-21.794,0.145-30.815,8.602c0,0-0.001,0-0.001,0.001l-17.248,15.605l-14.696-13.486l28.53-26.013     c14.507-13.653,38.4-13.653,52.907,0l72.533,66.56c2.56,1.707,3.413,4.267,3.413,6.827S492.227,412.653,490.52,414.36z" /><path
           style="fill:#757c94;fill-opacity:1"
           id="path4499"
           d="M213.187,248.813c11.947,9.387,25.6,17.067,38.4,22.187c1.707,0.853,2.56,0.853,3.413,0.853s1.707,0,2.56,0     c13.653-5.12,26.453-12.8,38.4-22.187c38.4-29.867,61.44-78.507,61.44-129.707V41.453c0-4.267-3.413-8.533-7.68-8.533     c-43.52-5.12-73.387-20.48-90.453-32.427c-2.56-1.707-6.827-1.707-9.387,0C231.96,12.44,202.093,27.8,159.427,32.92     c-4.267,0.853-7.68,4.267-7.68,8.533v77.653C151.747,170.307,174.787,218.947,213.187,248.813z M169.667,48.28     c38.4-5.973,67.413-19.627,85.333-30.72c17.92,11.093,46.933,24.747,85.333,30.72v70.827c0,46.08-20.48,89.6-54.613,116.053     c-10.24,7.68-20.48,13.653-30.72,17.92c-10.24-4.267-21.333-10.24-30.72-17.92c-34.133-26.453-54.613-69.973-54.613-116.053     V48.28z" /><path
           style="fill:#757c94;fill-opacity:1"
           id="path4501"
           d="M216.6,174.573c-8.533-17.067-12.8-35.84-12.8-54.613V76.44c10.24-2.56,19.627-5.973,29.013-9.387     c4.267-1.707,6.827-6.827,5.12-11.093s-6.827-6.827-11.093-5.12c-11.093,4.267-22.187,7.68-33.28,10.24     c-4.267,0.853-6.827,4.267-6.827,8.533v50.347c0,22.187,5.12,43.52,14.507,62.293c1.707,2.56,4.267,4.267,7.68,4.267     c1.707,0,2.56,0,4.267-0.853C217.453,183.96,219.16,178.84,216.6,174.573z" /></g></g></g></svg>