<?xml version="1.0" encoding="iso-8859-1"?>
<!-- Generator: Adobe Illustrator 19.0.0, SVG Export Plug-In . SVG Version: 6.00 Build 0)  -->
<svg xmlns="http://www.w3.org/2000/svg" xmlns:xlink="http://www.w3.org/1999/xlink" version="1.1" id="Capa_1" x="0px" y="0px" viewBox="0 0 512 512" style="enable-background:new 0 0 512 512;" xml:space="preserve" width="512px" height="512px">
<g>
	<g>
		<path d="M402.787,209.711v-41.537h7.515c4.15,0,7.515-3.364,7.515-7.515C417.816,72.072,345.745,0,257.157,0    C168.57,0,96.499,72.072,96.499,160.659c0,4.151,3.365,7.515,7.515,7.515h7.515v41.361c-39.215,2.185-70.449,34.77-70.449,74.521    c0,33.671,22.415,62.195,53.104,71.464v53.165c0,7.245,5.895,13.141,13.141,13.141h0.887v30.56    c0,32.873,26.743,59.616,59.616,59.616h43.084c30.326,0,55.417-22.766,59.126-52.102h0.448c9.967,0,18.077-8.11,18.077-18.077    v-33.982c0-9.967-8.11-18.077-18.077-18.077h-14.945c-9.967,0-18.077,8.11-18.077,18.077v33.982    c0,9.738,7.745,17.681,17.395,18.042c-3.569,21.035-21.911,37.107-43.947,37.107h-43.084c-24.586,0-44.587-20.002-44.587-44.587    v-30.56h0.887c7.245,0,13.141-5.896,13.141-13.141V360.99c4.073,5.875,10.861,9.734,18.536,9.734    c12.431,0,22.544-10.114,22.544-22.544V219.93c0-12.43-10.113-22.544-22.544-22.544c-8.633,0-16.144,4.88-19.93,12.023h-9.316    v-41.236h7.515c4.15,0,7.515-3.364,7.515-7.515c0-63.727,51.844-115.571,115.571-115.571c22.249,0,43.871,6.368,62.524,18.418    c3.486,2.252,8.138,1.252,10.389-2.234c2.252-3.486,1.251-8.138-2.234-10.389c-21.09-13.623-45.53-20.824-70.679-20.824    c-69.49,0-126.478,54.557-130.386,123.085h-15.051c3.922-76.823,67.655-138.115,145.436-138.115s141.515,61.292,145.438,138.115    h-15.052c-1.74-30.431-14.024-59.176-35.032-81.632c-2.836-3.03-7.591-3.189-10.622-0.354c-3.031,2.835-3.189,7.59-0.355,10.622    c20.116,21.502,31.194,49.515,31.194,78.879c0,4.151,3.365,7.515,7.515,7.515h7.515v41.236h-11.632    c-3.786-7.144-11.297-12.023-19.93-12.023c-12.431,0-22.544,10.114-22.544,22.544v128.25c0,12.43,10.113,22.544,22.544,22.544    c8.633,0,16.144-4.88,19.93-12.023h20.148c41.16,0,74.646-33.486,74.646-74.646C470.92,245.091,440.906,213.023,402.787,209.711z     M252.493,441.821v-33.982c0-1.681,1.368-3.048,3.048-3.048h14.945c1.68,0,3.048,1.367,3.048,3.048v33.982    c0,1.681-1.368,3.048-3.048,3.048h-14.945C253.861,444.869,252.493,443.502,252.493,441.821z M122.239,406.794h-13.025v-48.094    h6.513h6.513V406.794z M115.726,224.438h17.534v65.127c0,4.151,3.365,7.515,7.515,7.515c4.15,0,7.515-3.364,7.515-7.515V219.93    c0-4.144,3.371-7.515,7.515-7.515s7.515,3.371,7.515,7.515v128.25c0,4.144-3.371,7.515-7.515,7.515s-7.515-3.371-7.515-7.515    v-28.556c0-4.151-3.365-7.515-7.515-7.515c-4.15,0-7.515,3.364-7.515,7.515v24.047h-3.507h-14.027    c-32.873,0-59.616-26.743-59.616-59.616C56.11,251.182,82.853,224.438,115.726,224.438z M363.71,348.18    c0,4.144-3.371,7.515-7.515,7.515c-4.144,0-7.515-3.371-7.515-7.515V219.93c0-4.144,3.371-7.515,7.515-7.515    c4.144,0,7.515,3.371,7.515,7.515V348.18z M396.274,343.671H378.74V224.438h17.534c32.873,0,59.616,26.743,59.616,59.616    S429.147,343.671,396.274,343.671z" fill="#757c94"/>
	</g>
</g>
<g>
</g>
<g>
</g>
<g>
</g>
<g>
</g>
<g>
</g>
<g>
</g>
<g>
</g>
<g>
</g>
<g>
</g>
<g>
</g>
<g>
</g>
<g>
</g>
<g>
</g>
<g>
</g>
<g>
</g>
</svg>
