<?xml version="1.0" encoding="iso-8859-1"?>
<!-- Generator: Adobe Illustrator 19.0.0, SVG Export Plug-In . SVG Version: 6.00 Build 0)  -->
<svg xmlns="http://www.w3.org/2000/svg" xmlns:xlink="http://www.w3.org/1999/xlink" version="1.1" id="Layer_1" x="0px" y="0px" viewBox="0 0 512 512" style="enable-background:new 0 0 512 512;" xml:space="preserve" width="512px" height="512px">
<g>
	<g>
		<path d="M509.632,181.35L332.805,4.523c-3.158-3.156-8.276-3.156-11.433,0l-73.17,73.17c-3.157,3.158-3.157,8.276,0,11.433    l20.683,20.683l-55.624,55.625l-40.059-40.059c-3.158-3.156-8.276-3.156-11.433,0c-3.157,3.158-3.157,8.276,0,11.433    l40.059,40.059l-43.818,43.819c-9.35,9.347-9.35,24.95-0.001,34.299l73.932,73.932c3.158,3.156,8.276,3.156,11.433,0    l19.817-19.817c15.76-15.76,15.76-41.404,0-57.163l-20.198-20.199l6.852-6.852L378.521,353.56    c6.935,6.934,6.935,18.218,0.001,25.152c-6.933,6.933-18.212,6.934-25.148,0.005c-0.002-0.002-0.003-0.003-0.004-0.005    l-18.293-18.293c-3.158-3.156-8.276-3.156-11.433,0c-3.157,3.158-3.157,8.276,0,11.433c0,0,17.758,18.009,18.167,18.418    c6.935,6.936,6.935,18.219,0.001,25.153c-6.627,6.625-17.212,6.904-24.189,0.871c-0.251-0.348-19.129-19.29-19.129-19.29    c-3.158-3.156-8.276-3.156-11.433,0c-3.157,3.158-3.157,8.276,0,11.433c0,0,15.294,14.819,19.931,20.185    c5.775,6.681,4.646,16.974-1.639,23.26c-6.853,6.853-18.289,6.855-25.145,0.004c-0.002-0.002-0.003-0.004-0.005-0.005    c0,0-19.106-19.026-19.55-19.32c0.862-3.113,1.309-6.352,1.277-9.619c-0.087-9.185-3.714-17.688-10.214-23.945    c-6.375-6.138-14.631-9.26-22.93-9.405c0.507-2.427,0.766-4.915,0.743-7.419c-0.087-9.185-3.713-17.688-10.212-23.944    c0-0.001,0-0.001-0.001-0.001c-6.854-6.598-15.883-9.714-24.799-9.387c0.24-1.704,0.357-3.431,0.34-5.165    c-0.087-9.185-3.714-17.688-10.214-23.945h0.001c-6.376-6.138-14.632-9.26-22.93-9.406c0.507-2.427,0.766-4.914,0.742-7.419    c-0.087-9.185-3.713-17.688-10.212-23.944c0-0.001,0-0.001-0.001-0.001c-13.229-12.736-34.56-12.527-47.551,0.458l-35.062,35.062    l-51.39-51.389c-3.158-3.156-8.276-3.156-11.433,0c-3.157,3.158-3.157,8.276,0,11.433l51.39,51.389l-3.047,3.047    c-9.454,9.455-9.454,24.842,0.001,34.299l13.719,13.719c4.392,4.391,10.064,6.716,15.826,7.029    c0.318,5.983,2.771,11.568,7.04,15.835l13.721,13.721c4.391,4.391,10.063,6.715,15.826,7.028    c0.318,5.984,2.771,11.569,7.04,15.838l13.719,13.718c4.268,4.27,9.854,6.722,15.838,7.04c0.313,5.762,2.638,11.434,7.029,15.827    l13.719,13.718c4.58,4.581,10.67,7.104,17.149,7.104c6.479,0,12.569-2.523,17.149-7.103l3.047-3.047l16.214,16.214    c6.619,6.619,15.314,9.928,24.008,9.928c8.695,0,17.391-3.309,24.01-9.93c7.314-7.315,10.586-17.167,9.818-26.749    c9.885,0.798,19.753-2.822,26.766-9.835c7.251-7.252,10.587-17.044,9.851-26.628c9.536,0.723,19.329-2.551,26.609-9.829    c7.354-7.356,10.623-17.273,9.806-26.906c9.632,0.804,19.55-2.451,26.906-9.806c6.412-6.413,9.945-14.94,9.945-24.01    c0-9.068-3.531-17.594-9.945-24.008l-12.825-12.821l20.204-20.204c15.76-15.76,15.76-41.404,0-57.164l-1.907-1.906l6.838-6.838    l22.762,22.762c3.115,3.114,8.318,3.114,11.433,0l73.17-73.17C512.789,189.625,512.789,184.508,509.632,181.35z M80.302,365.545    l-13.721-13.718c-3.152-3.153-3.152-8.283,0-11.433l49.541-49.542c5.302-5.302,13.67-6.657,20.405-3.386    c6.763,3.285,10.526,10.605,9.625,18.017c-0.498,4.098-2.365,8.01-5.287,10.932l-49.129,49.13    C88.581,368.697,83.453,368.697,80.302,365.545z M116.886,402.132l-13.721-13.722c-3.115-3.115-3.115-8.318,0.001-11.431    l45.358-45.358c3.446-3.447,8.013-5.176,12.582-5.176c7.117,0,13.786,4.357,16.378,11.029c2.602,6.699,0.848,14.644-4.221,19.71    l-44.944,44.946C125.166,405.282,120.038,405.283,116.886,402.132z M164.903,438.715c-3.115,3.115-8.318,3.115-11.431-0.001    l-13.722-13.718c-3.115-3.115-3.115-8.318,0.001-11.431l43.445-43.446c5.43-5.432,14.084-6.727,20.852-3.102    c6.055,3.243,9.722,9.849,9.273,16.699c-0.292,4.468-2.214,8.797-5.384,11.966L164.903,438.715z M201.487,475.299    c-1.525,1.528-3.556,2.369-5.715,2.369c-2.159,0-4.19-0.841-5.717-2.368l-13.719-13.718c-3.15-3.151-3.152-8.276-0.005-11.429    c0.002-0.002,0.004-0.003,0.005-0.005l39.261-39.26c6.725-6.725,18.05-6.841,24.904-0.244c7.172,6.905,6.762,18.884-0.165,25.806    L201.487,475.299z M268.768,488.466c-6.937,6.935-18.22,6.935-25.153,0l-16.214-16.214c0,0,24.879-24.903,25.131-25.172    l16.234,16.234c0.001,0.001,0.003,0.003,0.005,0.004C275.7,470.254,275.699,481.534,268.768,488.466z M430.746,248.803    l-39.684-39.685c-3.158-3.156-8.276-3.156-11.433,0c-3.157,3.158-3.157,8.276,0,11.433l11.206,11.206l-12.554,12.554    c-3.157,3.158-3.157,8.276,0,11.433l7.622,7.622c9.456,9.455,9.456,24.841,0,34.296l-20.198,20.199L255.57,207.728    c-3.114-3.112-8.319-3.112-11.433,0l-18.294,18.292c-3.157,3.158-3.157,8.276,0,11.432l25.914,25.916    c9.456,9.455,9.456,24.841,0,34.296l-14.1,14.101l-68.215-68.216c-3.116-3.114-3.116-8.317,0-11.431l110.877-110.877l67.18,67.18    c3.157,3.155,8.275,3.157,11.433,0c3.157-3.158,3.157-8.276,0-11.433l-93.58-93.58l61.736-61.736l165.394,165.394L430.746,248.803    z" fill="#757c94"/>
	</g>
</g>
<g>
	<g>
		<path d="M138.495,66.9c-5.489-0.73-19.319-3.784-29.195-16.375c-7.017-8.952-8.701-18.661-9.08-23.65    c-0.319-4.216-3.833-7.472-8.06-7.472c-4.228,0-7.741,3.256-8.062,7.472c-0.379,4.991-2.063,14.699-9.079,23.649    C65.143,63.116,51.312,66.171,45.823,66.9c-4.017,0.534-7.019,3.96-7.019,8.014s3.002,7.479,7.02,8.013    c5.488,0.73,19.319,3.786,29.195,16.375c7.017,8.952,8.701,18.661,9.08,23.65c0.32,4.215,3.834,7.472,8.062,7.472    c4.228,0,7.741-3.256,8.062-7.472c0.379-4.991,2.063-14.699,9.079-23.649c9.877-12.593,23.707-15.648,29.196-16.376    c4.016-0.534,7.018-3.959,7.018-8.013S142.514,67.434,138.495,66.9z M92.16,95.803c-1.272-2.162-2.736-4.33-4.417-6.475    c0,0,0-0.001-0.001-0.001c-5.074-6.47-10.882-11.1-16.557-14.414c5.675-3.313,11.485-7.945,16.559-14.415    c1.682-2.145,3.145-4.314,4.417-6.475c5.076,8.622,12.338,15.845,20.976,20.89C104.5,79.956,97.231,87.18,92.16,95.803z" fill="#757c94"/>
	</g>
</g>
<g>
	<g>
		<path d="M99.691,446.318c-5.489-0.73-19.319-3.784-29.195-16.375c-7.017-8.952-8.701-18.661-9.08-23.65    c-0.319-4.216-3.833-7.472-8.061-7.472c-4.227,0-7.741,3.256-8.062,7.472c-0.379,4.991-2.063,14.699-9.079,23.649    c-9.877,12.593-23.707,15.648-29.196,16.376C3.002,446.852,0,450.279,0,454.333s3.002,7.479,7.02,8.014    c5.488,0.73,19.319,3.786,29.195,16.375c7.017,8.952,8.701,18.661,9.08,23.65c0.32,4.215,3.834,7.472,8.062,7.472    c4.228,0,7.741-3.256,8.062-7.472c0.379-4.991,2.063-14.699,9.079-23.649c9.877-12.593,23.707-15.648,29.196-16.376    c4.016-0.535,7.018-3.96,7.018-8.014S103.71,446.852,99.691,446.318z M57.773,468.747c-1.682,2.145-3.145,4.313-4.417,6.475    c-1.272-2.162-2.736-4.33-4.417-6.475c0,0,0-0.001-0.001-0.001c-5.074-6.47-10.883-11.1-16.558-14.414    c8.637-5.043,15.902-12.266,20.976-20.89c5.076,8.622,12.338,15.845,20.976,20.89C68.656,457.646,62.847,462.278,57.773,468.747z" fill="#757c94"/>
	</g>
</g>
<g>
	<g>
		<path d="M504.98,377.333c-5.489-0.73-19.319-3.784-29.195-16.375c-7.017-8.952-8.701-18.661-9.08-23.65    c-0.32-4.215-3.834-7.472-8.062-7.472s-7.741,3.256-8.062,7.472c-0.379,4.991-2.063,14.699-9.079,23.649    c-9.877,12.593-23.707,15.648-29.196,16.376c-4.018,0.534-7.02,3.96-7.02,8.014s3.002,7.479,7.02,8.014    c5.488,0.73,19.319,3.786,29.195,16.375c7.017,8.952,8.701,18.661,9.08,23.65c0.32,4.215,3.834,7.472,8.062,7.472    s7.741-3.256,8.062-7.472c0.379-4.991,2.063-14.699,9.079-23.649c9.877-12.593,23.707-15.648,29.196-16.376    c4.018-0.534,7.02-3.96,7.02-8.014S508.998,377.867,504.98,377.333z M463.061,399.762c-1.682,2.145-3.145,4.313-4.417,6.475    c-1.272-2.162-2.736-4.33-4.417-6.475c0,0,0-0.001-0.001-0.001c-5.074-6.47-10.883-11.1-16.557-14.414    c8.637-5.043,15.902-12.266,20.976-20.89c5.076,8.622,12.338,15.845,20.976,20.89    C473.945,388.661,468.135,393.293,463.061,399.762z" fill="#757c94"/>
	</g>
</g>
<g>
</g>
<g>
</g>
<g>
</g>
<g>
</g>
<g>
</g>
<g>
</g>
<g>
</g>
<g>
</g>
<g>
</g>
<g>
</g>
<g>
</g>
<g>
</g>
<g>
</g>
<g>
</g>
<g>
</g>
</svg>
