<?xml version="1.0" encoding="iso-8859-1"?>
<!-- Generator: Adobe Illustrator 19.0.0, SVG Export Plug-In . SVG Version: 6.00 Build 0)  -->
<svg xmlns="http://www.w3.org/2000/svg" xmlns:xlink="http://www.w3.org/1999/xlink" version="1.1" id="Layer_1" x="0px" y="0px" viewBox="0 0 512.002 512.002" style="enable-background:new 0 0 512.002 512.002;" xml:space="preserve" width="512px" height="512px">
<g>
	<g>
		<g>
			<path d="M386.313,338.062c-3.328,3.328-3.328,8.738,0,12.066l18.108,18.108c1.664,1.673,3.849,2.5,6.033,2.5     c2.176,0,4.361-0.828,6.033-2.5c3.328-3.328,3.328-8.73,0-12.066l-18.099-18.108     C395.051,334.734,389.649,334.734,386.313,338.062z" fill="#757c94"/>
			<path d="M477.867,191.28v81.801h-34.133v-42.667c0-4.71-3.814-8.533-8.533-8.533s-8.533,3.823-8.533,8.533v51.2     c0,4.71,3.814,8.533,8.533,8.533h51.2c4.719,0,8.533-3.823,8.533-8.533v-73.267l2.5,2.5c1.664,1.664,3.849,2.5,6.033,2.5     c2.185,0,4.369-0.836,6.033-2.5c3.337-3.337,3.337-8.73,0-12.066l-17.058-17.058c0,0-0.009-0.009-0.017-0.017l-76.791-76.791     c-3.337-3.337-8.73-3.337-12.066,0c-3.337,3.336-3.337,8.73,0,12.066L477.867,191.28z" fill="#757c94"/>
			<path d="M287.642,181.723c0,0-0.008-0.009-0.017-0.017l-76.792-76.791c-3.337-3.337-8.73-3.337-12.066,0l-76.792,76.791     c0,0-0.009,0.009-0.017,0.017L104.9,198.781c-3.337,3.337-3.337,8.73,0,12.066c3.337,3.336,8.73,3.336,12.066,0l2.5-2.5v73.267     c0,4.71,3.814,8.533,8.533,8.533h59.733c4.719,0,8.533-3.823,8.533-8.533v-42.667h17.067v42.667c0,4.71,3.814,8.533,8.533,8.533     H281.6c4.719,0,8.533-3.823,8.533-8.533v-73.267l2.5,2.5c1.664,1.664,3.849,2.5,6.033,2.5c2.185,0,4.369-0.836,6.033-2.5     c3.336-3.337,3.336-8.73,0-12.066L287.642,181.723z M273.067,273.081H230.4v-42.667c0-4.71-3.814-8.533-8.533-8.533h-34.133     c-4.719,0-8.533,3.823-8.533,8.533v42.667h-42.667V191.28l68.267-68.267l68.267,68.267V273.081z" fill="#757c94"/>
			<path d="M204.8,34.147c-94.106,0-170.667,76.561-170.667,170.667S110.694,375.481,204.8,375.481s170.667-76.561,170.667-170.667     S298.906,34.147,204.8,34.147z M204.8,358.414c-84.693,0-153.6-68.907-153.6-153.6s68.907-153.6,153.6-153.6     s153.6,68.907,153.6,153.6S289.493,358.414,204.8,358.414z" fill="#757c94"/>
			<path d="M439.697,379.38c-1.596-1.596-3.763-2.5-6.033-2.5h-0.008c-2.261,0.008-4.437,0.913-6.042,2.517l-24.064,24.201     c-3.328,3.337-3.311,8.738,0.034,12.066c3.345,3.328,8.747,3.32,12.066-0.034l18.031-18.125l53.751,53.743     c4.83,4.838,7.501,11.264,7.501,18.099s-2.671,13.269-7.501,18.099c-9.975,9.975-26.206,9.992-36.198,0.008l-101.12-101.12     c-3.328-3.328-8.73-3.328-12.066,0c-3.328,3.337-3.328,8.738,0,12.066l101.12,101.12c8.311,8.32,19.234,12.467,30.157,12.467     s21.862-4.156,30.174-12.467c8.055-8.064,12.501-18.773,12.501-30.174c0-11.392-4.446-22.11-12.501-30.165L439.697,379.38z" fill="#757c94"/>
			<path d="M409.6,204.814c0-112.922-91.878-204.8-204.8-204.8S0,91.892,0,204.814s91.878,204.8,204.8,204.8     S409.6,317.736,409.6,204.814z M204.8,392.547c-103.518,0-187.733-84.215-187.733-187.733S101.282,17.081,204.8,17.081     s187.733,84.215,187.733,187.733S308.318,392.547,204.8,392.547z" fill="#757c94"/>
		</g>
	</g>
</g>
<g>
</g>
<g>
</g>
<g>
</g>
<g>
</g>
<g>
</g>
<g>
</g>
<g>
</g>
<g>
</g>
<g>
</g>
<g>
</g>
<g>
</g>
<g>
</g>
<g>
</g>
<g>
</g>
<g>
</g>
</svg>
