<?xml version="1.0" encoding="iso-8859-1"?>
<!-- Generator: Adobe Illustrator 19.0.0, SVG Export Plug-In . SVG Version: 6.00 Build 0)  -->
<svg xmlns="http://www.w3.org/2000/svg" xmlns:xlink="http://www.w3.org/1999/xlink" version="1.1" id="Layer_1" x="0px" y="0px" viewBox="0 0 512 512" style="enable-background:new 0 0 512 512;" xml:space="preserve" width="512px" height="512px">
<g transform="translate(1 1)">
	<g>
		<g>
			<path d="M348.867,365.933c-5.12,0-8.533,3.413-8.533,8.533s3.413,8.533,8.533,8.533h8.533h85.333h8.533     c5.12,0,8.533-3.413,8.533-8.533s-3.413-8.533-8.533-8.533v-76.8c0-5.12-3.413-8.533-8.533-8.533H357.4     c-5.12,0-8.533,3.413-8.533,8.533V365.933z M365.933,340.333h25.6v25.6h-25.6V340.333z M408.6,365.933v-25.6h25.6v25.6H408.6z      M434.2,323.267h-25.6v-25.6h25.6V323.267z M391.533,297.667v25.6h-25.6v-25.6H391.533z" fill="#757c94"/>
			<path d="M297.667,383h-7.68c-5.12,0-8.533,3.413-8.533,8.533s3.413,8.533,8.533,8.533h7.68c5.12,0,8.533-3.413,8.533-8.533     S302.787,383,297.667,383z" fill="#757c94"/>
			<path d="M155.16,411.16c8.533-5.12,16.213-11.093,24.747-17.067c46.08-35.84,73.387-94.72,73.387-156.16v-76.8     c0-4.267-2.56-7.68-5.973-8.533c-34.987-9.387-64.853-25.6-91.307-41.813c-2.56-1.707-5.973-1.707-8.533,0     C121.027,127,92.013,143.213,56.173,152.6c-3.413,1.707-5.973,4.267-5.973,8.533v76.8c0,61.44,27.307,120.32,73.387,156.16     c7.68,6.827,16.213,11.947,24.747,17.067c1.707,0.853,2.56,0.853,4.267,0.853C154.307,412.013,155.16,411.16,155.16,411.16z      M133.827,380.44c-41.813-32.427-66.56-86.187-66.56-142.507V167.96c33.28-10.24,60.587-24.747,85.333-39.253     c24.747,14.507,52.053,29.867,85.333,39.253v69.973c0,56.32-24.747,110.08-66.56,142.507c-5.973,5.12-12.8,9.387-18.773,12.8     C145.773,389.827,139.8,385.56,133.827,380.44z" fill="#757c94"/>
			<path d="M132.12,164.547l-7.68,3.413c-8.533,4.267-17.067,8.533-25.6,11.093c-3.413,0.853-5.973,4.267-5.973,7.68v59.733     c0,33.28,9.387,53.76,27.307,81.067c1.707,2.56,4.267,4.267,6.827,4.267c1.707,0,3.413-0.853,4.267-0.853     c4.267-2.56,5.12-7.68,2.56-11.947c-16.213-25.6-23.893-43.52-23.893-72.533v-53.76c6.827-2.56,14.507-5.973,21.333-9.387     l7.68-3.413c4.267-1.707,5.973-6.827,4.267-11.093S136.387,162.84,132.12,164.547z" fill="#757c94"/>
			<path d="M505.88,187.587l-80.213-30.08v-64.64h8.533c5.12,0,8.533-3.413,8.533-8.533V50.2c0-5.12-3.413-8.533-8.533-8.533     H323.267c-5.12,0-8.533,3.413-8.533,8.533v34.133c0,5.12,3.413,8.533,8.533,8.533h8.533v29.44l-29.727-11.148     c-0.856-0.571-1.776-0.995-2.699-1.226c-60.587-7.68-104.107-32.427-141.653-58.027c-2.56-1.707-6.827-1.707-9.387,0     c-38.4,25.6-81.92,50.347-141.653,58.027C2.413,110.787-1,114.2-1,118.467V237.08c0,77.653,34.987,151.893,93.013,197.12     c17.37,14.061,36.343,24.905,55.365,32.553c1.142,0.808,2.505,1.322,4.007,1.502c0.453,0.074,0.836,0.079,1.214,0.079h76.8     h93.867h153.6c5.12,0,8.533-3.413,7.68-8.533v-30.099c0.55-1.169,0.853-2.525,0.853-4.035s-0.304-2.865-0.853-4.035V239.569     l14.507,6.044c0.853,0.853,2.56,0.853,3.413,0.853c1.707,0,3.413-0.853,5.12-1.707c1.707-1.707,3.413-4.267,3.413-6.827v-42.667     C511,191.853,509.293,188.44,505.88,187.587z M331.8,58.733h93.867V75.8h-8.533h-76.8H331.8V58.733z M408.6,92.867v58.027     l-59.733-22.187v-35.84H408.6z M468.333,417.133H331.8v-102.4c0-5.12-3.413-8.533-8.533-8.533h-26.442     c3.822-13.879,6.513-28.158,7.999-42.667H331.8h8.533c5.12,0,8.533-3.413,8.533-8.533c0-5.12-3.413-8.533-8.533-8.533V203.8     c0-5.12-3.413-8.533-8.533-8.533h-25.6V165.4l162.133,67.413V417.133z M323.267,246.467H306.2c0-3.413,0-6.827,0-9.387v-24.747     h17.067V246.467z M16.067,237.08V126.147C80.067,115.907,127,86.04,152.6,68.973c25.6,17.067,72.533,46.933,136.533,57.173V152.6     v51.2v33.28c0,3.622-0.103,7.23-0.264,10.829c-0.126,1.939-0.309,3.989-0.59,6.238c0,0.533,0.046,1.064,0.12,1.59     c-1.46,18.984-5.129,37.536-10.803,55.265c-0.17,0.377-0.309,0.768-0.41,1.172c-2.772,8.529-6.024,16.898-9.715,25.041     c-0.004,0.009-0.008,0.018-0.012,0.026c-0.788,1.738-1.606,3.46-2.433,5.176c-0.301,0.62-0.601,1.241-0.907,1.858     c-0.491,0.997-0.996,1.987-1.501,2.977c-0.736,1.434-1.474,2.866-2.239,4.283c-0.033,0.062-0.067,0.123-0.1,0.185     c-14.42,26.645-33.839,50.181-57.333,68.828c-16.213,12.8-33.28,23.04-50.347,29.867c-17.067-7.68-34.133-17.067-50.347-29.867     C48.493,378.733,16.067,309.613,16.067,237.08z M195.478,447.078c6.058-3.944,11.972-8.234,17.709-12.878     c2.613-2.036,5.162-4.152,7.68-6.303v23.37h-31.573C191.306,449.925,193.379,448.522,195.478,447.078z M237.933,451.267v-39.253     c23.893-24.747,41.813-55.467,53.76-88.747h23.04v128H237.933z M331.8,451.267V434.2h136.533v17.067H331.8z M493.933,225.133     L306.2,146.627v-16.213l187.733,70.827V225.133z" fill="#757c94"/>
		</g>
	</g>
</g>
<g>
</g>
<g>
</g>
<g>
</g>
<g>
</g>
<g>
</g>
<g>
</g>
<g>
</g>
<g>
</g>
<g>
</g>
<g>
</g>
<g>
</g>
<g>
</g>
<g>
</g>
<g>
</g>
<g>
</g>
</svg>
