<?xml version="1.0" encoding="iso-8859-1"?>
<!-- Generator: Adobe Illustrator 19.0.0, SVG Export Plug-In . SVG Version: 6.00 Build 0)  -->
<svg xmlns="http://www.w3.org/2000/svg" xmlns:xlink="http://www.w3.org/1999/xlink" version="1.1" id="Layer_1" x="0px" y="0px" viewBox="0 0 512 512" style="enable-background:new 0 0 512 512;" xml:space="preserve" width="512px" height="512px">
<g>
	<g>
		<path d="M181.328,448h-128c-5.891,0-10.664,4.781-10.664,10.656c0,5.906,4.773,10.688,10.664,10.688h128    c5.891,0,10.672-4.781,10.672-10.688C192,452.781,187.219,448,181.328,448z" fill="#757c94"/>
	</g>
</g>
<g>
	<g>
		<path d="M96,405.344H53.328c-5.891,0-10.664,4.766-10.664,10.656s4.774,10.656,10.664,10.656H96    c5.891,0,10.664-4.766,10.664-10.656S101.891,405.344,96,405.344z" fill="#757c94"/>
	</g>
</g>
<g>
	<g>
		<path d="M494.25,201.5l-65.203-43.461c8.125-12.414,11.828-27.781,9.25-43.578c-3.953-24.281-21.609-42.906-43.781-49.281    L383.906,0L210.602,81.398l-86.055,14c-4.766,0.773-8.008,5.273-7.234,10.047l2.812,17.273l-25.914,4.219    c-4.773,0.773-8.008,5.273-7.234,10.047l2.695,16.562L17.75,201.5C7.984,208.008,0,222.93,0,234.664v255.992    C0,502.406,9.594,512,21.328,512h469.328c11.75,0,21.344-9.594,21.344-21.344V234.664C512,222.93,504,208.008,494.25,201.5z     M403.484,93.602c7.328,6.18,12.203,14.805,13.766,24.281c1.938,11.992-1.656,23.633-8.906,32.289l-9.781-60.094    C400.281,91.125,401.938,92.297,403.484,93.602z M367.407,31.328l30.265,186.078l-146.109-17.109l-17.32-106.43L367.407,31.328z     M220.336,254.758l21.438,39.57l-31.43,5.109l-29.453-71.328l42.938-6.984l-5.18,17.383l-2.523,8.469L220.336,254.758z     M214.031,102.453l15.633,96.109l-73.633,11.977l-15.641-96.102L214.031,102.453z M123.555,143.781l7.203,44.266l-13.5,2.195    l-7.203-44.266L123.555,143.781z M29.578,219.25l63.859-42.57l4.781,29.406c0.703,4.297,4.414,7.352,8.633,7.352    c0.469,0,0.938-0.039,1.414-0.117l25.914-4.211l2.812,17.273c0.695,4.297,4.414,7.352,8.625,7.352    c0.469,0,0.945-0.039,1.422-0.117l12.227-1.992l37.812,91.594l77.75-12.656l-35.734-65.969l6.984-23.461l177.188,20.75    l-10.859-66.805c0.594-0.422,1.219-0.852,1.812-1.297l68.188,45.469c0.656,0.438,1.328,1.039,1.984,1.758L283.672,353.062    c-7.578-6.469-17.398-10.406-28.148-10.406c-10.531,0-20.18,3.766-27.688,10L27.602,221    C28.266,220.289,28.93,219.688,29.578,219.25z M277.531,386c0,12.125-9.883,22-22.008,22c-12.133,0-22-9.875-22-22s9.868-22,22-22    C267.648,364,277.531,373.875,277.531,386z M490.655,490.624c0.001,0.017-0.014,0.032-0.03,0.032H21.367    c-0.008,0-0.023-0.016-0.039-0.031V242.406l193.945,127.531c-1.984,4.969-3.086,10.375-3.086,16.062    c0,23.938,19.398,43.344,43.336,43.344c23.93,0,43.32-19.406,43.32-43.344c0-5.469-1-10.688-2.844-15.5l194.656-128.078V490.624z" fill="#757c94"/>
	</g>
</g>
<g>
</g>
<g>
</g>
<g>
</g>
<g>
</g>
<g>
</g>
<g>
</g>
<g>
</g>
<g>
</g>
<g>
</g>
<g>
</g>
<g>
</g>
<g>
</g>
<g>
</g>
<g>
</g>
<g>
</g>
</svg>
