<?xml version="1.0"?>
<svg xmlns="http://www.w3.org/2000/svg" height="512px" viewBox="1 1 511.99975 511" width="512px"><path d="m344.101562.5c-92.582031 0-167.902343 75.320312-167.902343 167.898438 0 37.339843 12.261719 71.867187 32.957031 99.785156l-32.644531 34.335937-3.113281-3.113281c-2.933594-2.933594-7.695313-2.933594-10.628907 0l-152.363281 152.363281c-13.875 13.875-13.875 36.449219 0 50.324219 6.9375 6.9375 16.050781 10.40625 25.164062 10.40625 9.109376 0 18.222657-3.46875 25.160157-10.40625l152.363281-152.363281c2.9375-2.9375 2.9375-7.695313 0-10.632813l-3.265625-3.265625 32.367187-34.09375c28.277344 21.664063 63.613282 34.558594 101.90625 34.558594 92.578126 0 167.898438-75.316406 167.898438-167.898437 0-92.578126-75.320312-167.898438-167.898438-167.898438zm-294.003906 490.960938c-8.011718 8.011718-21.046875 8.011718-29.058594 0-8.011718-8.011719-8.011718-21.046876 0-29.058594l147.042969-147.046875 29.0625 29.058593zm149.09375-166.261719-12.046875-12.046875 31.578125-33.210938c3.773438 4.234375 7.753906 8.28125 11.929688 12.117188zm144.910156-3.9375c-84.289062 0-152.863281-68.574219-152.863281-152.863281 0-84.289063 68.574219-152.863282 152.863281-152.863282 84.289063 0 152.863282 68.574219 152.863282 152.863282 0 84.289062-68.574219 152.863281-152.863282 152.863281zm0 0" fill="#757c94"/><path d="m435.839844 65.539062c-3.097656-2.765624-7.847656-2.496093-10.613282.601563-2.765624 3.097656-2.496093 7.851563.601563 10.617187 26.097656 23.289063 41.066406 56.691407 41.066406 91.640626 0 67.707031-55.085937 122.792968-122.792969 122.792968-67.707031 0-122.792968-55.085937-122.792968-122.792968 0-67.707032 55.082031-122.792969 122.792968-122.792969 19.035157 0 37.28125 4.238281 54.222657 12.589843 3.726562 1.835938 8.234375.304688 10.066406-3.417968 1.839844-3.722656.308594-8.230469-3.417969-10.066406-19.027344-9.382813-39.507812-14.140626-60.871094-14.140626-76 0-137.828124 61.832032-137.828124 137.828126 0 76 61.828124 137.828124 137.828124 137.828124 75.996094 0 137.828126-61.828124 137.828126-137.828124 0-39.226563-16.800782-76.71875-46.089844-102.859376zm0 0" fill="#757c94"/><path d="m344.34375 72.671875c-39.519531 0-71.667969 32.152344-71.667969 71.671875 0 16.339844 11.289063 39.851562 33.554688 69.886719 16.105469 21.722656 31.949219 38.769531 32.617187 39.488281 2.929688 3.140625 8.066406 3.140625 10.996094 0 .667969-.714844 16.511719-17.765625 32.617188-39.488281 22.265624-30.035157 33.554687-53.546875 33.554687-69.886719 0-39.519531-32.152344-71.671875-71.671875-71.671875zm0 164.726563c-19.761719-22.316407-56.632812-68.929688-56.632812-93.054688 0-31.230469 25.40625-56.636719 56.632812-56.636719 31.230469 0 56.636719 25.40625 56.636719 56.636719 0 24.125-36.871094 70.742188-56.636719 93.054688zm0 0" fill="#757c94"/><path d="m344.34375 104.746094c-21.832031 0-39.59375 17.765625-39.59375 39.597656s17.761719 39.59375 39.59375 39.59375 39.59375-17.761719 39.59375-39.59375-17.757812-39.597656-39.59375-39.597656zm0 64.15625c-13.542969 0-24.558594-11.019532-24.558594-24.558594 0-13.542969 11.015625-24.558594 24.558594-24.558594s24.558594 11.015625 24.558594 24.558594c0 13.539062-11.015625 24.558594-24.558594 24.558594zm0 0" fill="#757c94"/></svg>
