<?xml version='1.0' encoding='iso-8859-1'?>
<!DOCTYPE svg PUBLIC '-//W3C//DTD SVG 1.1//EN' 'http://www.w3.org/Graphics/SVG/1.1/DTD/svg11.dtd'>
<svg version="1.1" xmlns="http://www.w3.org/2000/svg" viewBox="0 0 474 474" xmlns:xlink="http://www.w3.org/1999/xlink" enable-background="new 0 0 474 474">
  <g>
    <path d="m336,280.5v-273c0-4.142-3.358-7.5-7.5-7.5h-183c-4.142,0-7.5,3.358-7.5,7.5v273c0,3.802 2.832,6.936 6.5,7.426v5.348c-3.668,0.49-6.5,3.624-6.5,7.426v159.8c0,4.142 3.358,7.5 7.5,7.5h6.651c0.695,3.423 3.721,6 7.349,6s6.654-2.577 7.349-6h140.301c0.695,3.423 3.721,6 7.349,6s6.654-2.577 7.349-6h6.651c4.142,0 7.5-3.358 7.5-7.5v-159.801c0-3.802-2.832-6.936-6.5-7.426v-5.348c3.669-0.489 6.501-3.623 6.501-7.425zm-15,172.5h-168v-82.5h0.73c10.901,0 19.77-8.869 19.77-19.77v-42.531h147.5v144.801zm-157.5-144.801v42.531c0,5.387-4.383,9.77-9.77,9.77h-0.73v-52.301h10.5zm-4-15v-5.199h155v5.199h-155zm4-20.199h-10.5v-56.5h0.73c5.387,0 9.77,4.383 9.77,9.77v46.73zm157.5-258v258h-147.5v-46.73c0-10.901-8.869-19.77-19.77-19.77h-0.73v-191.5h168z"/>
    <path d="m237,68.5c9.098,0 16.5-7.402 16.5-16.5s-7.402-16.5-16.5-16.5-16.5,7.402-16.5,16.5 7.402,16.5 16.5,16.5zm0-23c3.584,0 6.5,2.916 6.5,6.5s-2.916,6.5-6.5,6.5-6.5-2.916-6.5-6.5 2.916-6.5 6.5-6.5z"/>
  </g>
</svg>
