<?xml version="1.0" encoding="iso-8859-1"?>
<!-- Generator: Adobe Illustrator 17.1.0, SVG Export Plug-In . SVG Version: 6.00 Build 0)  -->
<!DOCTYPE svg PUBLIC "-//W3C//DTD SVG 1.1//EN" "http://www.w3.org/Graphics/SVG/1.1/DTD/svg11.dtd">
<svg version="1.1" id="Capa_1" xmlns="http://www.w3.org/2000/svg" xmlns:xlink="http://www.w3.org/1999/xlink" x="0px" y="0px"
	 viewBox="0 0 392.345 392.345" style="enable-background:new 0 0 392.345 392.345;" xml:space="preserve">
<path id="XMLID_474_" d="M218.056,283.306c-3.516-3.514-3.517-9.212-0.003-12.728c3.516-3.515,9.214-3.517,12.728-0.002l3.444,3.443
	c3.516,3.514,3.517,9.212,0.003,12.728c-1.758,1.758-4.062,2.637-6.365,2.637c-2.303,0-4.605-0.878-6.362-2.635L218.056,283.306z
	 M154.508,91.202c0.828,0,1.63-0.112,2.392-0.321v1.667c0,4.971,4.029,9,9,9s9-4.029,9-9V78.544h42.543v14.004c0,4.971,4.029,9,9,9
	s9-4.029,9-9V90.88c0.763,0.21,1.566,0.322,2.396,0.322c4.971,0,9-4.029,9-9V56.888c0-4.971-4.029-9-9-9
	c-0.829,0-1.633,0.112-2.396,0.322v-1.669c0-4.971-4.029-9-9-9s-9,4.029-9,9v14.004H174.9V46.541c0-4.971-4.029-9-9-9s-9,4.029-9,9
	v1.668c-0.762-0.209-1.564-0.321-2.392-0.321c-4.971,0-9,4.029-9,9v25.314C145.508,87.173,149.537,91.202,154.508,91.202z
	 M164.481,289.384c2.303,0,4.606-0.878,6.363-2.636l3.444-3.443c3.515-3.514,3.515-9.213,0-12.728
	c-3.514-3.514-9.212-3.515-12.728,0l-3.443,3.443c-3.515,3.514-3.516,9.213-0.001,12.728
	C159.874,288.505,162.177,289.384,164.481,289.384z M356.534,180.439v156.45h21.271c4.971,0,9,4.029,9,9v37.455c0,4.971-4.029,9-9,9
	H14.539c-4.971,0-9-4.029-9-9V345.89c0-4.971,4.029-9,9-9h21.273v-156.45H14.539c-4.971,0-9-4.029-9-9V75.084c0-4.971,4.029-9,9-9
	h80.772c1.236-17.969,12.088-34.502,30.873-46.868C145.01,6.825,169.865,0,196.173,0c26.306,0,51.161,6.824,69.987,19.216
	c18.786,12.366,29.639,28.9,30.874,46.868h80.771c4.971,0,9,4.029,9,9v96.355c0,4.971-4.029,9-9,9H356.534z M113.193,69.545
	c0,1.377,0.095,2.779,0.283,4.169c0.013,0.083,0.024,0.166,0.034,0.249c3.744,26.442,40.015,47.127,82.663,47.127
	c42.65,0,78.924-20.689,82.662-47.12c0.01-0.083,0.021-0.166,0.034-0.249c0.188-1.409,0.284-2.813,0.284-4.176
	c0-13.044-8.129-25.578-22.89-35.294C240.342,23.771,219.002,18,196.173,18c-22.831,0-44.171,5.771-60.092,16.251
	C121.322,43.967,113.193,56.501,113.193,69.545z M23.539,354.89v19.455h345.267V354.89H23.539z M282.944,211.434V336.89h55.591
	v-156.45H53.812v156.45h55.588V211.434c0-4.971,4.029-9,9-9h155.543C278.914,202.434,282.944,206.463,282.944,211.434z
	 M205.173,220.434V336.89h59.771V220.434H205.173z M127.401,220.434V336.89h59.772V220.434H127.401z M368.806,162.439V84.084
	h-73.828c-9.651,31.852-50.299,55.006-98.805,55.006c-48.506,0-89.154-23.152-98.805-55.006h-73.83v78.355h21.273H368.806z"/>
<g>
</g>
<g>
</g>
<g>
</g>
<g>
</g>
<g>
</g>
<g>
</g>
<g>
</g>
<g>
</g>
<g>
</g>
<g>
</g>
<g>
</g>
<g>
</g>
<g>
</g>
<g>
</g>
<g>
</g>
</svg>
