<?xml version="1.0" encoding="iso-8859-1"?>
<!-- Generator: Adobe Illustrator 19.0.0, SVG Export Plug-In . SVG Version: 6.00 Build 0)  -->
<svg version="1.1" id="Layer_1" xmlns="http://www.w3.org/2000/svg" xmlns:xlink="http://www.w3.org/1999/xlink" x="0px" y="0px"
	 viewBox="0 0 503.607 503.607" style="enable-background:new 0 0 503.607 503.607;" xml:space="preserve">
<g transform="translate(1 1)">
	<g>
		<g>
			<path d="M477.426-1H24.18C9.911-1-1,9.911-1,24.18v453.246c0,14.269,10.911,25.18,25.18,25.18h83.934h142.689h142.689h83.934
				c14.269,0,25.18-10.911,25.18-25.18V24.18C502.607,9.911,491.695-1,477.426-1z M242.41,485.82H116.508V124.902
				c0-5.036,3.357-8.393,8.393-8.393H242.41V485.82z M259.197,485.82V116.508h117.508c5.036,0,8.393,3.357,8.393,8.393V485.82
				H259.197z M485.82,477.426c0,5.036-3.357,8.393-8.393,8.393h-75.541V124.902c0-14.269-10.911-25.18-25.18-25.18H250.803H124.902
				c-14.269,0-25.18,10.911-25.18,25.18V485.82H24.18c-5.036,0-8.393-3.357-8.393-8.393V24.18c0-5.036,4.197-8.393,8.393-8.393
				h453.246c5.036,0,8.393,3.357,8.393,8.393V477.426z"/>
			<path d="M460.639,259.197h-33.574c-5.036,0-8.393,3.357-8.393,8.393v33.574v33.574c0,5.036,3.357,8.393,8.393,8.393h33.574
				c5.036,0,8.393-3.357,8.393-8.393v-33.574V267.59C469.033,262.554,465.675,259.197,460.639,259.197z M435.459,275.984h16.787
				v16.787h-16.787V275.984z M452.246,326.344h-16.787v-16.787h16.787V326.344z"/>
			<path d="M309.557,32.574H192.049c-5.036,0-8.393,3.357-8.393,8.393v33.574c0,5.036,3.357,8.393,8.393,8.393h117.508
				c5.036,0,8.393-3.357,8.393-8.393V40.967C317.951,35.931,314.593,32.574,309.557,32.574z M301.164,66.148H200.443V49.361h100.721
				V66.148z"/>
		</g>
	</g>
</g>
<g>
</g>
<g>
</g>
<g>
</g>
<g>
</g>
<g>
</g>
<g>
</g>
<g>
</g>
<g>
</g>
<g>
</g>
<g>
</g>
<g>
</g>
<g>
</g>
<g>
</g>
<g>
</g>
<g>
</g>
</svg>
