<?xml version="1.0" encoding="iso-8859-1"?>
<!-- Generator: Adobe Illustrator 18.0.0, SVG Export Plug-In . SVG Version: 6.00 Build 0)  -->
<!DOCTYPE svg PUBLIC "-//W3C//DTD SVG 1.1//EN" "http://www.w3.org/Graphics/SVG/1.1/DTD/svg11.dtd">
<svg version="1.1" id="Capa_1" xmlns="http://www.w3.org/2000/svg" xmlns:xlink="http://www.w3.org/1999/xlink" x="0px" y="0px"
	 viewBox="0 0 379.004 379.004" style="enable-background:new 0 0 379.004 379.004;" xml:space="preserve">
<g>
	<path d="M355.914,80.773H23.09C10.358,80.773,0,91.131,0,103.863v171.277c0,12.732,10.358,23.09,23.09,23.09h332.824
		c12.731,0,23.09-10.358,23.09-23.09V103.863C379.004,91.131,368.646,80.773,355.914,80.773z M366.004,275.141
		c0,5.563-4.526,10.09-10.09,10.09H23.09c-5.563,0-10.09-4.526-10.09-10.09V103.863c0-5.563,4.526-10.09,10.09-10.09h332.824
		c5.563,0,10.09,4.526,10.09,10.09V275.141z"/>
	<path d="M355.676,114.619c0-6.738-5.462-12.2-12.2-12.2c-4.915,0-9.14,2.913-11.072,7.1c-1.669-0.385-3.404-0.595-5.188-0.595
		H201.68c-0.231-6.534-5.587-11.764-12.178-11.764c-6.591,0-11.947,5.23-12.178,11.764H51.276c-1.62,0-3.201,0.169-4.728,0.488
		c-1.955-4.13-6.148-6.994-11.021-6.994c-6.738,0-12.2,5.462-12.2,12.2c0,4.441,2.381,8.316,5.928,10.45
		c-0.693,2.193-1.069,4.526-1.069,6.945V246.99c0,2.419,0.376,4.752,1.069,6.945c-3.547,2.134-5.928,6.009-5.928,10.45
		c0,6.738,5.462,12.2,12.2,12.2c4.873,0,9.066-2.864,11.021-6.994c1.527,0.319,3.108,0.488,4.728,0.488h126.047
		c0.231,6.534,5.587,11.764,12.178,11.764c6.591,0,11.947-5.23,12.178-11.764h125.535c1.784,0,3.519-0.21,5.188-0.595
		c1.933,4.188,6.158,7.1,11.073,7.1c6.738,0,12.2-5.462,12.2-12.2c0-4.622-2.571-8.643-6.361-10.713
		c0.641-2.117,0.99-4.359,0.99-6.682V132.014c0-2.323-0.348-4.566-0.99-6.682C353.104,123.261,355.676,119.241,355.676,114.619z
		 M51.276,257.08c-5.563,0-10.09-4.526-10.09-10.09V132.014c0-5.563,4.526-10.09,10.09-10.09h275.938
		c5.563,0,10.09,4.526,10.09,10.09V246.99c0,5.563-4.526,10.09-10.09,10.09H51.276z"/>
	<circle cx="92.322" cy="189.502" r="7.657"/>
	<circle cx="297.221" cy="159.355" r="7.537"/>
	<circle cx="297.221" cy="179.453" r="7.537"/>
	<circle cx="297.221" cy="199.551" r="7.537"/>
	<circle cx="297.221" cy="219.649" r="7.537"/>
	<circle cx="262.487" cy="179.453" r="7.537"/>
	<circle cx="262.487" cy="199.551" r="7.537"/>
	<circle cx="244.792" cy="189.502" r="7.537"/>
	<circle cx="280.182" cy="169.404" r="7.537"/>
	<circle cx="280.182" cy="189.502" r="7.537"/>
	<circle cx="280.182" cy="209.6" r="7.537"/>
</g>
<g>
</g>
<g>
</g>
<g>
</g>
<g>
</g>
<g>
</g>
<g>
</g>
<g>
</g>
<g>
</g>
<g>
</g>
<g>
</g>
<g>
</g>
<g>
</g>
<g>
</g>
<g>
</g>
<g>
</g>
</svg>
