<?xml version="1.0" encoding="iso-8859-1"?>
<!-- Generator: Adobe Illustrator 19.0.0, SVG Export Plug-In . SVG Version: 6.00 Build 0)  -->
<svg version="1.1" id="Layer_1" xmlns="http://www.w3.org/2000/svg" xmlns:xlink="http://www.w3.org/1999/xlink" x="0px" y="0px"
	 viewBox="0 0 512 512" style="enable-background:new 0 0 512 512;" xml:space="preserve">
<g>
	<g>
		<path d="M407.864,26.034H112.814c-4.792,0-8.678,3.886-8.678,8.678v173.559c0,4.792,3.886,8.678,8.678,8.678h295.051
			c4.792,0,8.678-3.886,8.678-8.678V34.712C416.542,29.919,412.657,26.034,407.864,26.034z M399.186,199.593H121.492V43.39h277.695
			V199.593z"/>
	</g>
</g>
<g>
	<g>
		<path d="M95.458,468.61V251.661c0-4.792-3.886-8.678-8.678-8.678H34.712c-4.792,0-8.678,3.886-8.678,8.678V468.61H0v17.356h34.712
			H86.78h26.034V468.61H95.458z M78.102,468.61H43.39V260.339h34.712V468.61z"/>
	</g>
</g>
<g>
	<g>
		<path d="M494.644,468.61V251.661c0-4.792-3.886-8.678-8.678-8.678h-52.068c-4.792,0-8.678,3.886-8.678,8.678V468.61h-26.034
			v17.356h34.712h52.068H512V468.61H494.644z M477.288,468.61h-34.712V260.339h34.712V468.61z"/>
	</g>
</g>
<g>
	<g>
		<path d="M355.797,355.797h-26.034v-43.39c0-4.792-3.886-8.678-8.678-8.678H199.593c-4.792,0-8.678,3.886-8.678,8.678v43.39
			h-26.034c-4.792,0-8.678,3.886-8.678,8.678v52.068v52.068c0,4.792,3.886,8.678,8.678,8.678h190.915
			c4.792,0,8.678-3.886,8.678-8.678v-52.068v-52.068C364.475,359.682,360.589,355.797,355.797,355.797z M208.271,321.085h104.136
			v34.712H208.271V321.085z M347.119,459.932H173.559V425.22h173.559V459.932z M347.119,407.864H173.559v-34.712h26.034h121.492
			h26.034V407.864z"/>
	</g>
</g>
<g>
</g>
<g>
</g>
<g>
</g>
<g>
</g>
<g>
</g>
<g>
</g>
<g>
</g>
<g>
</g>
<g>
</g>
<g>
</g>
<g>
</g>
<g>
</g>
<g>
</g>
<g>
</g>
<g>
</g>
</svg>
