<?xml version="1.0" encoding="iso-8859-1"?>
<!-- Generator: Adobe Illustrator 18.1.1, SVG Export Plug-In . SVG Version: 6.00 Build 0)  -->
<svg version="1.1" id="Capa_1" xmlns="http://www.w3.org/2000/svg" xmlns:xlink="http://www.w3.org/1999/xlink" x="0px" y="0px"
	 viewBox="0 0 195.67 195.67" style="enable-background:new 0 0 195.67 195.67;" xml:space="preserve">
<g>
	<g>
		<polygon style="fill:#010002;" points="89.496,31.125 89.496,35.896 184.722,35.896 184.722,170.071 89.496,170.071 
			89.496,174.845 189.493,174.845 189.493,31.125 		"/>
		<polygon style="fill:#010002;" points="176.355,42.323 90.362,42.323 90.362,46.142 172.393,46.142 172.393,153.687 
			89.464,153.687 89.464,157.505 176.355,157.505 		"/>
		<rect x="89.496" y="183.531" style="fill:#010002;" width="27.446" height="9.348"/>
		<path style="fill:#010002;" d="M6.177,195.67h77.865V0H6.177V195.67z M10.168,3.998h69.884v187.679H10.168V3.998z"/>
		<path style="fill:#010002;" d="M45.108,120.529c-8.621,0-15.636,7.018-15.636,15.64s7.011,15.632,15.636,15.632
			s15.636-7.011,15.636-15.632S53.733,120.529,45.108,120.529z M45.108,147.81c-6.417,0-11.642-5.225-11.642-11.642
			c0-6.417,5.225-11.646,11.642-11.646c6.417,0,11.642,5.229,11.642,11.646C56.75,142.585,51.525,147.81,45.108,147.81z"/>
		<path style="fill:#010002;" d="M17.658,27.02h56.904V10.543H17.658V27.02z M21.648,14.541h48.919v8.482H21.648V14.541z"/>
		<path style="fill:#010002;" d="M29.472,84.919H60.74V70.947H29.472V84.919z M33.466,74.938h23.288v5.991H33.466V74.938z"/>
	</g>
</g>
<g>
</g>
<g>
</g>
<g>
</g>
<g>
</g>
<g>
</g>
<g>
</g>
<g>
</g>
<g>
</g>
<g>
</g>
<g>
</g>
<g>
</g>
<g>
</g>
<g>
</g>
<g>
</g>
<g>
</g>
</svg>
