<?xml version="1.0" encoding="iso-8859-1"?>
<!-- Generator: Adobe Illustrator 19.0.0, SVG Export Plug-In . SVG Version: 6.00 Build 0)  -->
<svg version="1.1" id="Layer_1" xmlns="http://www.w3.org/2000/svg" xmlns:xlink="http://www.w3.org/1999/xlink" x="0px" y="0px"
	 viewBox="0 0 511.999 511.999" style="enable-background:new 0 0 511.999 511.999;" xml:space="preserve">
<g>
	<g>
		<path d="M241.207,222.783c-0.155-0.765-0.383-1.507-0.682-2.236c-0.299-0.717-0.67-1.411-1.1-2.057
			c-0.43-0.658-0.933-1.267-1.483-1.817c-2.774-2.786-6.911-4.053-10.797-3.276c-0.765,0.155-1.507,0.383-2.236,0.682
			c-0.717,0.299-1.411,0.67-2.057,1.1c-0.658,0.442-1.267,0.933-1.817,1.495c-0.562,0.55-1.052,1.16-1.495,1.817
			c-0.43,0.646-0.801,1.339-1.1,2.057c-0.299,0.729-0.526,1.471-0.682,2.236c-0.155,0.777-0.227,1.566-0.227,2.344
			c0,3.145,1.267,6.23,3.503,8.454c0.55,0.551,1.16,1.052,1.817,1.483c0.646,0.43,1.339,0.801,2.057,1.1
			c0.729,0.299,1.471,0.526,2.236,0.682c0.777,0.155,1.566,0.239,2.344,0.239c3.145,0,6.23-1.279,8.453-3.503
			c2.224-2.224,3.503-5.309,3.503-8.454C241.447,224.35,241.363,223.56,241.207,222.783z"/>
	</g>
</g>
<g>
	<g>
		<path d="M128.944,226.896c-0.143-0.765-0.383-1.519-0.682-2.248c-0.299-0.717-0.67-1.411-1.1-2.057
			c-0.43-0.658-0.933-1.267-1.483-1.817c-0.55-0.55-1.16-1.052-1.817-1.483c-0.646-0.43-1.339-0.801-2.069-1.1
			c-0.717-0.299-1.471-0.538-2.236-0.682c-1.542-0.311-3.133-0.311-4.663,0c-0.765,0.143-1.519,0.383-2.248,0.682
			c-0.717,0.299-1.411,0.67-2.057,1.1c-0.658,0.43-1.267,0.933-1.817,1.483c-0.55,0.55-1.052,1.16-1.495,1.817
			c-0.43,0.646-0.801,1.339-1.1,2.057c-0.299,0.729-0.526,1.483-0.682,2.248c-0.155,0.765-0.227,1.554-0.227,2.332
			c0,0.777,0.072,1.566,0.227,2.332c0.155,0.765,0.383,1.52,0.682,2.236c0.299,0.729,0.67,1.423,1.1,2.069
			c0.442,0.658,0.945,1.267,1.495,1.817c0.55,0.55,1.16,1.052,1.817,1.483c0.646,0.43,1.339,0.801,2.057,1.1
			c0.729,0.299,1.483,0.526,2.248,0.682c0.765,0.155,1.554,0.239,2.332,0.239c0.777,0,1.566-0.084,2.332-0.239
			c0.765-0.155,1.518-0.383,2.236-0.682c0.729-0.299,1.423-0.67,2.069-1.1c0.658-0.43,1.267-0.933,1.817-1.483
			c0.55-0.55,1.052-1.16,1.483-1.817c0.43-0.646,0.801-1.339,1.1-2.069c0.299-0.717,0.538-1.471,0.682-2.236
			c0.155-0.765,0.239-1.554,0.239-2.332C129.183,228.451,129.1,227.662,128.944,226.896z"/>
	</g>
</g>
<g>
	<g>
		<path d="M353.471,226.896c-0.155-0.765-0.383-1.519-0.682-2.248c-0.299-0.717-0.67-1.411-1.1-2.057
			c-0.442-0.658-0.945-1.267-1.495-1.817s-1.16-1.052-1.817-1.495c-0.646-0.43-1.339-0.789-2.057-1.088
			c-0.729-0.299-1.471-0.538-2.236-0.693c-1.542-0.311-3.133-0.311-4.675,0c-0.765,0.155-1.519,0.395-2.236,0.693
			c-0.717,0.299-1.411,0.658-2.069,1.088c-0.646,0.442-1.267,0.945-1.817,1.495c-0.55,0.55-1.052,1.16-1.483,1.817
			c-0.43,0.646-0.801,1.339-1.1,2.057c-0.299,0.729-0.526,1.483-0.682,2.248s-0.239,1.554-0.239,2.332
			c0,0.777,0.084,1.566,0.239,2.332c0.157,0.765,0.383,1.52,0.682,2.236c0.299,0.729,0.67,1.423,1.1,2.069
			c0.43,0.658,0.933,1.267,1.483,1.817c0.55,0.55,1.172,1.052,1.817,1.483c0.658,0.43,1.351,0.801,2.069,1.1
			c0.717,0.299,1.471,0.538,2.236,0.682c0.765,0.155,1.554,0.239,2.332,0.239c0.789,0,1.566-0.084,2.344-0.239
			c0.765-0.143,1.507-0.383,2.236-0.682c0.717-0.299,1.411-0.67,2.057-1.1c0.658-0.43,1.267-0.933,1.817-1.483
			s1.052-1.16,1.495-1.817c0.43-0.646,0.801-1.339,1.1-2.069c0.299-0.717,0.526-1.471,0.682-2.236
			c0.155-0.765,0.227-1.554,0.227-2.332C353.698,228.451,353.626,227.662,353.471,226.896z"/>
	</g>
</g>
<g>
	<g>
		<path d="M492.84,244.902c-3.014-5.876-10.222-8.195-16.096-5.181c-17.534,8.995-33.679,19.925-48.246,32.462l12.514-87.597
			c0.49-3.432-0.532-6.906-2.804-9.525c-2.271-2.619-5.567-4.123-9.033-4.123H285.808l-4.603-25.318
			c19.09-15.507,30.275-38.749,30.275-63.626C311.479,36.783,274.698,0,229.486,0s-81.994,36.783-81.994,81.994
			c0,24.878,11.185,48.119,30.275,63.626l-4.603,25.318H29.795c-3.466,0-6.762,1.504-9.033,4.123
			c-2.271,2.619-3.294,6.094-2.804,9.525L32.681,287.64c-3.23,0.185-6.262,1.656-8.384,4.124c-2.272,2.641-3.279,6.142-2.756,9.587
			l11.327,74.756c0.886,5.846,5.91,10.166,11.822,10.166h2.082l16.495,115.461c0.842,5.891,5.886,10.266,11.836,10.266h308.765
			c5.951,0,10.996-4.375,11.836-10.266l16.495-115.461h2.082c5.911,0,10.936-4.32,11.822-10.166l11.327-74.756
			c0.247-1.631,0.141-3.271-0.269-4.831c14.891-13.961,31.833-25.946,50.5-35.523C493.535,257.984,495.855,250.777,492.84,244.902z
			 M171.406,81.993c0-32.025,26.055-58.081,58.081-58.081s58.079,26.055,58.079,58.081c0,19.536-9.742,37.652-26.061,48.46
			c-3.986,2.64-6.017,7.403-5.162,12.108l5.159,28.376h-64.033l5.159-28.376c0.856-4.704-1.174-9.465-5.162-12.106
			C181.148,119.645,171.406,101.53,171.406,81.993z M57.142,362.359h-2.169l-7.704-50.842h344.623
			c-11.616,15.648-21.363,32.693-28.982,50.842H57.142z M354.301,386.273c-1.638,5.41-3.088,10.9-4.363,16.459h-16.895l2.143-16.459
			H354.301z M311.069,386.273l-2.143,16.459h-67.485v-16.459H311.069z M85.473,488.086L70.928,386.273h52.782l7.947,65.792
			c0.733,6.069,5.892,10.524,11.855,10.524c0.478,0,0.963-0.029,1.449-0.087c6.556-0.792,11.229-6.749,10.437-13.304l-7.6-62.924
			h69.73v22.423c-1.025,1.764-1.621,3.806-1.621,5.993v17.338c0,21.96,9.097,41.825,23.706,56.06H85.473z M348.629,432.026
			c0,29.997-24.405,54.404-54.404,54.404c-29.997,0-54.404-24.405-54.404-54.404v-5.381h108.808V432.026z M373.499,488.086h-24.661
			c14.609-14.235,23.706-34.1,23.706-56.06v-17.337c0-0.819-0.084-1.619-0.24-2.393c1.856-8.88,4.25-17.561,7.118-26.023h8.622
			L373.499,488.086z M403.998,362.359h-2.169h-12.711c5.67-11.928,12.361-23.286,20.023-33.937L403.998,362.359z M402.138,287.603
			h-54.961l2.797-23.157c0.792-6.556-3.881-12.513-10.437-13.304c-6.555-0.799-12.513,3.88-13.304,10.437l-3.143,26.025h-81.648
			v-28.5c0-6.604-5.353-11.957-11.957-11.957c-6.604,0-11.957,5.353-11.957,11.957v28.5h-81.649l-3.143-26.025
			c-0.792-6.556-6.744-11.232-13.304-10.437c-6.556,0.792-11.229,6.748-10.437,13.304l2.797,23.157H56.832l-13.249-92.751h139.56
			h92.686h139.56L402.138,287.603z"/>
	</g>
</g>
<g>
	<g>
		<path d="M229.486,40.976c-22.966,0-41.649,18.684-41.649,41.649c0,22.966,18.684,41.649,41.649,41.649
			c22.966,0,41.649-18.684,41.649-41.649C271.136,59.66,252.452,40.976,229.486,40.976z M229.485,100.361
			c-9.78,0-17.736-7.956-17.736-17.736s7.956-17.736,17.736-17.736s17.736,7.956,17.736,17.736S239.264,100.361,229.485,100.361z"/>
	</g>
</g>
<g>
</g>
<g>
</g>
<g>
</g>
<g>
</g>
<g>
</g>
<g>
</g>
<g>
</g>
<g>
</g>
<g>
</g>
<g>
</g>
<g>
</g>
<g>
</g>
<g>
</g>
<g>
</g>
<g>
</g>
</svg>
