<?xml version="1.0" encoding="iso-8859-1"?>
<!-- Generator: Adobe Illustrator 19.0.0, SVG Export Plug-In . SVG Version: 6.00 Build 0)  -->
<svg version="1.1" id="Layer_1" xmlns="http://www.w3.org/2000/svg" xmlns:xlink="http://www.w3.org/1999/xlink" x="0px" y="0px"
	 viewBox="0 0 511.997 511.997" style="enable-background:new 0 0 511.997 511.997;" xml:space="preserve">
<g>
	<g>
		<path d="M511.301,218.368v-24.024c0-0.111-0.012-0.219-0.017-0.33c-0.003-0.094-0.008-0.189-0.015-0.282
			c-0.055-0.758-0.209-1.488-0.451-2.177c-0.024-0.066-0.047-0.13-0.072-0.197c-0.269-0.709-0.629-1.371-1.068-1.974
			c-0.048-0.066-0.097-0.132-0.147-0.197c-0.229-0.297-0.474-0.581-0.74-0.845c-0.007-0.007-0.012-0.015-0.019-0.021
			c-29.823-29.258-20.217-81.803-20.12-82.319c0.002-0.012,0.002-0.024,0.005-0.035c0.029-0.153,0.036-0.31,0.056-0.466
			c0.034-0.256,0.072-0.514,0.082-0.769c0.006-0.147-0.008-0.297-0.01-0.445c-0.003-0.268-0.008-0.536-0.036-0.801
			c-0.003-0.037,0-0.074-0.004-0.111c-0.016-0.125-0.053-0.242-0.073-0.364c-0.042-0.247-0.084-0.494-0.148-0.737
			c-0.045-0.173-0.102-0.34-0.159-0.508c-0.072-0.218-0.146-0.433-0.235-0.644c-0.072-0.17-0.153-0.334-0.236-0.499
			c-0.1-0.198-0.204-0.393-0.319-0.584c-0.097-0.159-0.198-0.313-0.305-0.465c-0.126-0.18-0.259-0.354-0.399-0.525
			c-0.12-0.145-0.243-0.287-0.372-0.424c-0.148-0.157-0.303-0.307-0.463-0.453c-0.145-0.133-0.292-0.26-0.447-0.382
			c-0.071-0.056-0.132-0.121-0.206-0.175c-0.101-0.075-0.211-0.13-0.315-0.2c-0.162-0.109-0.325-0.216-0.495-0.314
			c-0.196-0.112-0.397-0.211-0.599-0.308c-0.165-0.078-0.328-0.156-0.499-0.224c-0.231-0.091-0.465-0.164-0.701-0.234
			c-0.117-0.035-0.227-0.086-0.348-0.116c-20.834-5.23-37.415-18.399-49.28-39.139c-9.153-15.996-11.927-30.702-11.952-30.833
			c-0.015-0.084-0.046-0.162-0.064-0.245c-0.052-0.245-0.116-0.486-0.189-0.727c-0.047-0.155-0.094-0.309-0.15-0.461
			c-0.084-0.228-0.186-0.45-0.29-0.671c-0.07-0.146-0.133-0.295-0.21-0.436c-0.024-0.043-0.038-0.088-0.062-0.129
			c-0.105-0.184-0.229-0.351-0.346-0.525c-0.08-0.119-0.151-0.244-0.237-0.359c-0.2-0.267-0.418-0.515-0.646-0.755
			c-0.059-0.062-0.114-0.128-0.174-0.188c-0.263-0.26-0.542-0.502-0.835-0.723c-0.145-0.11-0.303-0.202-0.454-0.303
			c-0.174-0.115-0.346-0.233-0.529-0.335c-0.177-0.099-0.361-0.182-0.545-0.269c-0.175-0.082-0.35-0.163-0.531-0.233
			c-0.189-0.073-0.382-0.136-0.579-0.196c-0.196-0.06-0.393-0.112-0.593-0.159c-0.11-0.025-0.214-0.066-0.325-0.087
			c-0.083-0.016-0.166-0.014-0.25-0.027c-0.222-0.035-0.447-0.055-0.671-0.072c-0.174-0.012-0.347-0.03-0.521-0.033
			c-0.055-0.001-0.108-0.01-0.163-0.01c-56.328,0.436-87.5-11.351-96.046-17.578c-2.551-1.943-5.981-2.272-8.856-0.85
			c-2.875,1.424-4.692,4.353-4.692,7.559v177.472H197.488l-61.277-62.604c0.074-0.779,0.116-1.569,0.116-2.367
			c0-13.77-11.202-24.971-24.971-24.971H25.667c-13.769,0-24.971,11.202-24.971,24.971c0,13.77,11.202,24.971,24.971,24.971h85.689
			c6.515,0,12.454-2.51,16.904-6.612l45.624,46.611h-55.18c-4.66,0-8.435,3.777-8.435,8.435v24.024
			c0,54.672,44.479,99.152,99.151,99.152h76.773l-95.992,98.07c-7.069-3.7-15.099-5.806-23.615-5.806
			c-28.181,0-51.108,22.927-51.108,51.108s22.928,51.108,51.108,51.108c28.181,0,51.108-22.927,51.108-51.108
			c0-13.548-5.31-25.873-13.944-35.028l102.501-104.722l100.624,102.803c-9.756,9.314-15.851,22.427-15.851,36.947
			c0,28.181,22.928,51.108,51.108,51.108c28.181,0,51.108-22.927,51.108-51.108s-22.928-51.108-51.108-51.108
			c-7.504,0-14.628,1.639-21.053,4.556l-94.769-96.822h85.839C466.823,317.52,511.301,273.041,511.301,218.368z M111.356,129.038
			H25.667c-4.467,0-8.101-3.634-8.101-8.101c0-4.467,3.634-8.101,8.101-8.101h85.689c4.467,0,8.101,3.634,8.101,8.101
			C119.457,125.404,115.823,129.038,111.356,129.038z M166.586,495.131c-18.879,0-34.238-15.359-34.238-34.238
			c0-18.879,15.359-34.238,34.238-34.238c18.879,0,34.238,15.359,34.238,34.238C200.824,479.773,185.466,495.131,166.586,495.131z
			 M442.134,426.656c18.879,0,34.238,15.359,34.238,34.238c0,18.879-15.359,34.238-34.238,34.238
			c-18.879,0-34.238-15.359-34.238-34.238C407.897,442.015,423.255,426.656,442.134,426.656z M320.105,22.223
			c13.584,5.581,38.234,12.602,77.891,13.79l-2.5,4.115l-13.055,21.486c-2.418,3.981-1.153,9.17,2.83,11.589
			c1.244,0.756,2.606,1.152,3.965,1.217c2.989,0.145,5.962-1.309,7.625-4.047l8.895-14.641l4.511-7.424
			c6.888,17.772,21.269,43.513,49.545,57.496l-112.279,59.861l-12.67,6.755l26.315-43.314l17.596-28.961
			c0.756-1.244,1.152-2.606,1.217-3.964c0.013-0.272,0.012-0.543,0-0.813c-0.052-1.082-0.312-2.146-0.765-3.13
			c-0.678-1.477-1.789-2.773-3.283-3.68c-3.981-2.419-9.169-1.153-11.59,2.83l-44.247,72.828V22.223z M209.419,300.65
			c-45.369,0-82.281-36.911-82.281-82.282v-15.589h63.258l95.796,97.871H209.419z M309.801,300.65l-95.798-97.871h97.661
			c0.002,0,0.006,0.001,0.008,0.001h0.001h0.002c0.003,0,0.006-0.001,0.009-0.001h111.833c4.66,0,8.435-3.777,8.435-8.435
			c0-4.658-3.776-8.435-8.435-8.435h-78.094l113.103-60.301l11.832-6.307c-0.242,5.296-0.253,11.574,0.279,18.391
			c1.45,18.607,6.491,34.962,14.768,48.217h-28.146c-4.658,0-8.435,3.777-8.435,8.435c0,4.658,3.777,8.435,8.435,8.435h37.175
			v15.589c0,45.37-36.911,82.282-82.281,82.282H309.801z"/>
	</g>
</g>
<g>
	<g>
		<path d="M166.586,439.525c-11.783,0-21.369,9.587-21.369,21.369c0,11.783,9.586,21.369,21.369,21.369
			c11.783,0,21.369-9.586,21.369-21.369C187.955,449.11,178.369,439.525,166.586,439.525z M166.586,465.392
			c-2.481,0-4.499-2.018-4.499-4.499c0-2.48,2.018-4.499,4.499-4.499c2.481,0,4.499,2.019,4.499,4.499
			C171.084,463.374,169.067,465.392,166.586,465.392z"/>
	</g>
</g>
<g>
	<g>
		<path d="M442.133,439.525c-11.783,0-21.369,9.587-21.369,21.369c0,11.782,9.587,21.369,21.369,21.369
			c11.783,0,21.369-9.586,21.369-21.369C463.502,449.111,453.916,439.525,442.133,439.525z M442.133,465.392
			c-2.481,0-4.499-2.018-4.499-4.499c0-2.481,2.018-4.499,4.499-4.499c2.481,0,4.499,2.019,4.499,4.499
			C446.632,463.375,444.614,465.392,442.133,465.392z"/>
	</g>
</g>
<g>
</g>
<g>
</g>
<g>
</g>
<g>
</g>
<g>
</g>
<g>
</g>
<g>
</g>
<g>
</g>
<g>
</g>
<g>
</g>
<g>
</g>
<g>
</g>
<g>
</g>
<g>
</g>
<g>
</g>
</svg>
