<?xml version="1.0" encoding="utf-8"?>
<!-- Generator: Adobe Illustrator 19.1.0, SVG Export Plug-In . SVG Version: 6.00 Build 0)  -->
<svg version="1.1" id="Layer_1" xmlns="http://www.w3.org/2000/svg" xmlns:xlink="http://www.w3.org/1999/xlink" x="0px" y="0px"
	 viewBox="0 0 64 64" enable-background="new 0 0 64 64" xml:space="preserve">
<g id="Cigarette_2_">
	<path d="M55.8253174,53.1021004c-0.0079002,0-0.0166016,0-0.024498,0
		c-6.6835022,0.0223999-23.8016853,0.0125999-37.5526886,0.0057983l-13.324214-0.0057983
		c-2.7108998,0-4.9159999,2.204998-4.9159999,4.9188995c0,1.3076019,0.5303,2.5878983,1.4550999,3.5126991
		S3.6680188,62.9888,4.975719,62.9888l13.3807983,0.0057983c7.2842007,0.0039024,15.5126991,0.0088005,22.6269989,0.0088005
		c6.3017006,0,11.7294998-0.0038986,14.8535004-0.0145988c3.3437004-0.0116997,5.0848999-2.5049019,5.0761986-4.9618988
		C60.9044189,55.5766983,59.1544189,53.1021004,55.8253174,53.1021004z M2.8770189,60.1195984
		c-0.5527-0.5527-0.8690999-1.3173981-0.8690999-2.1014977c0-1.607502,1.3085999-2.9160004,2.9159997-2.9160004
		l12.4054995,0.0052986c-0.7269993,1.9333992-0.7761002,4.1060028-0.1290989,5.8866997L4.975719,60.9888
		C4.1944189,60.9888,3.4298189,60.6724014,2.8770189,60.1195984z M19.3668194,60.9950981
		c-0.0125008-0.0302963-0.012001-0.0626984-0.0279007-0.0922966c-0.8066006-1.5049019-0.7959003-3.7246017,0.0284004-5.5223999
		c0.0404987-0.0884018,0.0501995-0.1804008,0.0639-0.271801c12.3815994,0.0079002,27.0981998,0.0149002,34.4955978-0.0014
		c-1.3956871,1.9487-1.3393021,3.9136009-0.4284019,5.8876991C45.9620171,61.0098,31.5118179,61.0022011,19.3668194,60.9950981z"/>
	<path d="M57.7901344,32.3325005c-2.3838158-1.5508003-3.6846161-2.9560013-3.8662186-4.1767006
		c-0.1875-1.2549,0.8340034-2.4717007,1.9150009-3.7598c1.1826019-1.4102001,2.4062996-2.8682003,2.4062996-4.7334003
		c0-0.5527-0.4473-1-1-1c-0.5527992,0-1,0.4473-1,1c0,1.1366997-0.9413986,2.2598-1.9384995,3.4473
		c-1.2567978,1.4980011-2.6806984,3.1953011-2.3612976,5.3408012c0.2782974,1.862299,1.7889977,3.6289005,4.7538986,5.5576
		c4.2607002,2.7724991,3.0498161,4.8096008,1.3740005,7.6298981c-0.8983994,1.5137024-1.8281021,3.0781021-1.8281021,4.830101
		c0,0.5527,0.4472008,1,1,1c0.5527,0,1-0.4473,1-1c0-1.2032013,0.7519188-2.4687996,1.547802-3.8086014
		C61.4249191,39.9136009,63.6592178,36.1519012,57.7901344,32.3325005z"/>
	<path d="M60.1768188,14.6665001c-2.3838005-1.5508003-3.6845016-2.9569998-3.8661995-4.1767998
		c-0.1874847-1.2558002,0.8339996-2.4726,1.9151001-3.7607002C59.4083176,5.3188,60.6309166,3.8608,60.6309166,1.9966
		c0-0.5528001-0.4472008-1-1-1c-0.5527,0-1,0.4472-1,1c0,1.1367-0.9413986,2.2588-1.9375,3.4463
		c-1.2567978,1.4979997-2.6805992,3.1952996-2.3612823,5.3407998c0.2772827,1.8633003,1.7880821,3.6288996,4.7538834,5.5586004
		c4.2607002,2.7714996,3.0498009,4.8095989,1.3740005,7.6299c-0.8993988,1.5126991-1.8291016,3.0781002-1.8291016,4.8299999
		c0,0.5527992,0.4473,1,1,1c0.5527992,0,1-0.4472008,1-1c0-1.2031002,0.7520027-2.4687004,1.5479012-3.8085003
		C63.8116188,22.2465992,66.0469208,18.4848995,60.1768188,14.6665001z"/>
</g>
<g>
</g>
<g>
</g>
<g>
</g>
<g>
</g>
<g>
</g>
<g>
</g>
<g>
</g>
<g>
</g>
<g>
</g>
<g>
</g>
<g>
</g>
<g>
</g>
<g>
</g>
<g>
</g>
<g>
</g>
</svg>
