<?xml version="1.0" encoding="iso-8859-1"?>
<!-- Generator: Adobe Illustrator 18.0.0, SVG Export Plug-In . SVG Version: 6.00 Build 0)  -->
<!DOCTYPE svg PUBLIC "-//W3C//DTD SVG 1.1//EN" "http://www.w3.org/Graphics/SVG/1.1/DTD/svg11.dtd">
<svg version="1.1" id="Capa_1" xmlns="http://www.w3.org/2000/svg" xmlns:xlink="http://www.w3.org/1999/xlink" x="0px" y="0px"
	 viewBox="0 0 489.948 489.948" style="enable-background:new 0 0 489.948 489.948;" xml:space="preserve">
<g>
	<path d="M254.73,105.828c29.176,0,52.912-23.737,52.912-52.915C307.642,23.737,283.906,0,254.73,0
		c-29.177,0-52.914,23.737-52.914,52.914C201.816,82.091,225.553,105.828,254.73,105.828z M254.73,8.5
		c24.489,0,44.412,19.924,44.412,44.414c0,24.49-19.923,44.415-44.412,44.415c-24.49,0-44.414-19.924-44.414-44.415
		C210.316,28.424,230.24,8.5,254.73,8.5z"/>
	<path d="M385.726,148.826h-26.427c-2.096-5.264-7.233-9-13.235-9h-13c-7.857,0-14.25,6.393-14.25,14.25v93.67
		c-3.849-2.622-7.848-5.049-11.984-7.264v-79.459c0-28.729-23.372-52.101-52.1-52.101c-28.729,0-52.102,23.373-52.102,52.101v70.556
		c-21.189,7.034-40.414,19.393-55.724,35.987l-21.022,0.001c-19.801,0-35.91,16.152-35.91,36.006l0.001,126.982
		c0,19.8,16.11,35.909,35.911,35.909c10.75,0,20.685-4.707,27.462-12.787c23.759,22.47,55.799,36.27,91.004,36.27
		c73.086,0,132.547-59.46,132.547-132.547c0-23.154-6.03-45.155-16.708-64.343c0.075-0.316,0.125-0.643,0.125-0.982v-111.75h25.412
		c7.857,0,14.25-6.393,14.25-14.25v-3C399.976,155.219,393.583,148.826,385.726,148.826z M211.128,161.024
		c0-24.041,19.56-43.601,43.602-43.601c24.041,0,43.6,19.56,43.6,43.601v75.292c-7.755-3.461-15.926-6.203-24.437-8.139l7.816-43.66
		c2.56-14.298-6.988-28.013-21.284-30.572c-1.542-0.276-3.111-0.415-4.666-0.415c-12.76,0-23.655,9.127-25.907,21.703l-9.265,51.754
		c-3.185,0.578-6.339,1.277-9.46,2.085V161.024z M250.893,308.414c-1.526,8.52-8.899,14.703-17.532,14.703
		c-1.055,0-2.122-0.095-3.173-0.284c-4.691-0.84-8.774-3.456-11.498-7.367c-2.723-3.91-3.759-8.647-2.919-13.337L238.22,176.73
		c1.525-8.518,8.902-14.701,17.54-14.701c1.054,0,2.12,0.095,3.168,0.283c9.682,1.733,16.148,11.022,14.414,20.707L250.893,308.414z
		 M211.715,320.324c4.021,5.773,10.049,9.636,16.975,10.876c1.543,0.276,3.115,0.417,4.671,0.417
		c12.754,0,23.646-9.128,25.899-21.705l9.378-52.383c45.728,11.072,78.481,52.393,78.481,99.872
		c0,56.667-46.102,102.77-102.77,102.77s-102.77-46.102-102.77-102.77c0-45.971,29.825-85.557,73.287-98.46l-7.463,41.69
		C206.164,307.556,207.695,314.55,211.715,320.324z M125.884,457.965c-2.212,0-4.362-0.271-6.424-0.768V438.25
		c0-2.347-1.903-4.25-4.25-4.25c-2.347,0-4.25,1.903-4.25,4.25v15.279c-7.509-4.895-12.487-13.361-12.487-22.973l-0.001-126.982
		c0-15.167,12.296-27.506,27.41-27.506l13.814-0.001c-18.029,23.184-27.894,51.807-27.894,81.334
		c0,34.814,13.498,66.53,35.528,90.207C142.153,454.141,134.349,457.965,125.884,457.965z M244.35,481.448
		c-68.4,0-124.047-55.647-124.047-124.047c0-59.436,41.147-109.584,98.679-121.448l-2.455,13.712
		c-23.025,5.94-43.847,19.333-58.866,37.973c-15.851,19.673-24.581,44.448-24.581,69.763c0,61.354,49.916,111.27,111.27,111.27
		s111.27-49.916,111.27-111.27c0-51.578-35.707-96.435-85.482-108.244l2.256-12.604c55.883,12.902,96.004,63.042,96.004,120.848
		C368.397,425.801,312.75,481.448,244.35,481.448z M327.314,254.047v-99.971c0-3.171,2.58-5.75,5.75-5.75h13
		c3.17,0,5.75,2.579,5.75,5.75v125.801C344.853,270.228,336.61,261.533,327.314,254.047z M391.476,166.076
		c0,3.17-2.58,5.75-5.75,5.75h-25.412v-14.5h25.412c3.17,0,5.75,2.579,5.75,5.75V166.076z"/>
	<path d="M244.35,444.751c48.164,0,87.35-39.185,87.35-87.35c0-2.347-1.903-4.25-4.25-4.25s-4.25,1.903-4.25,4.25
		c0,43.478-35.372,78.85-78.85,78.85c-2.347,0-4.25,1.903-4.25,4.25C240.1,442.848,242.003,444.751,244.35,444.751z"/>
</g>
<g>
</g>
<g>
</g>
<g>
</g>
<g>
</g>
<g>
</g>
<g>
</g>
<g>
</g>
<g>
</g>
<g>
</g>
<g>
</g>
<g>
</g>
<g>
</g>
<g>
</g>
<g>
</g>
<g>
</g>
</svg>
