<svg version="1.1" id="Layer_1" xmlns="http://www.w3.org/2000/svg" xmlns:xlink="http://www.w3.org/1999/xlink" x="0px" y="0px"
                                    viewBox="0 0 512.001 512.001" style="enable-background:new 0 0 512.001 512.001;" xml:space="preserve">
                                    <g>
                                        <g>
                                            <g>
                                                <path d="M106.546,326.631l8.867-13.907c3.266-5.12,1.764-11.92-3.357-15.186c-5.119-3.267-11.92-1.764-15.186,3.357
                                   l-8.869,13.909c-3.265,5.12-1.762,11.92,3.36,15.186c1.833,1.169,3.879,1.725,5.903,1.725
                                   C100.895,331.716,104.449,329.92,106.546,326.631z" />
                                                <path d="M79.687,348.302c-5.118-3.264-11.919-1.763-15.185,3.361l-17.625,27.643c-3.265,5.12-1.761,11.92,3.361,15.185
                                   c1.832,1.169,3.879,1.725,5.902,1.725c3.631,0,7.185-1.797,9.283-5.086l17.625-27.643
                                   C86.313,358.365,84.808,351.566,79.687,348.302z" />
                                                <path d="M38.563,412.801c-5.12-3.262-11.92-1.758-15.185,3.363l-8.868,13.909c-3.265,5.121-1.76,11.92,3.362,15.185
                                   c1.832,1.168,3.879,1.724,5.901,1.724c3.631,0,7.187-1.798,9.284-5.087l8.868-13.909
                                   C45.189,422.863,43.683,416.066,38.563,412.801z" />
                                                <path d="M160.178,344.585c-5.729-2.016-12.008,1.002-14.02,6.731l-5.468,15.566c-2.012,5.731,1.003,12.007,6.733,14.019
                                   c1.205,0.423,2.434,0.623,3.643,0.623c4.538,0,8.788-2.832,10.377-7.357l5.467-15.564
                                   C168.922,352.874,165.908,346.596,160.178,344.585z" />
                                                <path d="M142.802,394.055c-5.729-2.012-12.008,1.002-14.02,6.731l-8.932,25.427c-2.012,5.731,1.001,12.008,6.731,14.02
                                   c1.206,0.424,2.435,0.625,3.644,0.625c4.537,0,8.787-2.831,10.376-7.355l8.932-25.429
                                   C151.547,402.344,148.533,396.066,142.802,394.055z" />
                                                <path d="M121.964,453.391c-5.731-2.016-12.008,1.001-14.021,6.73l-5.467,15.563c-2.014,5.729,1,12.006,6.73,14.02
                                   c1.206,0.424,2.436,0.625,3.645,0.625c4.537,0,8.786-2.831,10.376-7.355l5.467-15.563
                                   C130.706,461.681,127.693,455.404,121.964,453.391z" />
                                                <path d="M223.633,359.092c-6.034-0.687-11.479,3.663-12.158,9.697l-1.846,16.39c-0.681,6.035,3.661,11.479,9.696,12.161
                                   c0.418,0.046,0.834,0.069,1.245,0.069c5.522,0,10.281-4.149,10.915-9.766l1.846-16.392
                                   C234.01,365.216,229.668,359.772,223.633,359.092z" />
                                                <path d="M217.765,411.193c-6.036-0.687-11.48,3.661-12.159,9.697l-3.018,26.781c-0.68,6.035,3.662,11.479,9.696,12.159
                                   c0.419,0.047,0.834,0.069,1.245,0.069c5.522,0,10.282-4.149,10.915-9.767l3.018-26.781
                                   C228.142,417.317,223.8,411.874,217.765,411.193z" />
                                                <path d="M210.725,473.682c-6.048-0.687-11.479,3.662-12.158,9.697l-1.846,16.391c-0.68,6.035,3.662,11.479,9.697,12.159
                                   c0.418,0.047,0.833,0.069,1.244,0.069c5.522,0,10.282-4.15,10.914-9.768l1.846-16.391
                                   C221.102,479.806,216.76,474.362,210.725,473.682z" />
                                                <path d="M292.674,397.34c6.035-0.68,10.378-6.123,9.697-12.159l-1.846-16.391c-0.681-6.036-6.129-10.375-12.159-9.697
                                   c-6.035,0.68-10.378,6.123-9.697,12.159l1.846,16.391c0.632,5.617,5.392,9.768,10.914,9.768
                                   C291.842,397.41,292.257,397.386,292.674,397.34z" />
                                                <path d="M299.716,459.83c6.035-0.68,10.377-6.123,9.697-12.159l-3.018-26.782c-0.681-6.035-6.122-10.367-12.161-9.696
                                   c-6.035,0.681-10.377,6.124-9.696,12.161l3.018,26.78c0.632,5.617,5.392,9.768,10.914,9.768
                                   C298.882,459.9,299.298,459.876,299.716,459.83z" />
                                                <path d="M313.435,483.38c-0.68-6.035-6.133-10.37-12.159-9.697c-6.035,0.68-10.378,6.123-9.697,12.159l1.846,16.391
                                   c0.633,5.617,5.392,9.768,10.915,9.768c0.411,0,0.827-0.023,1.245-0.069c6.035-0.68,10.378-6.123,9.697-12.159L313.435,483.38z"
                                                />
                                                <path d="M371.31,366.884l-5.467-15.565c-2.01-5.732-8.291-8.747-14.018-6.734c-5.732,2.011-8.746,8.287-6.735,14.018
                                   l5.467,15.565c1.588,4.526,5.837,7.358,10.377,7.358c1.209,0,2.438-0.201,3.642-0.623
                                   C370.307,378.89,373.321,372.614,371.31,366.884z" />
                                                <path d="M392.148,426.215l-8.93-25.428c-2.012-5.731-8.288-8.751-14.02-6.731c-5.731,2.011-8.744,8.288-6.731,14.019l8.93,25.428
                                   c1.589,4.525,5.838,7.356,10.377,7.356c1.209,0,2.439-0.201,3.643-0.625C391.147,438.222,394.161,431.945,392.148,426.215z"
                                                />
                                                <path d="M404.059,460.121c-2.012-5.729-8.293-8.739-14.02-6.73c-5.731,2.013-8.744,8.291-6.73,14.02l5.468,15.563
                                   c1.589,4.524,5.837,7.355,10.376,7.355c1.21,0,2.44-0.202,3.644-0.625c5.731-2.014,8.744-8.291,6.73-14.02L404.059,460.121z"
                                                />
                                                <path d="M415.129,300.895c-3.266-5.12-10.066-6.625-15.186-3.357c-5.12,3.266-6.624,10.064-3.357,15.186l8.867,13.907
                                   c2.097,3.288,5.651,5.085,9.283,5.085c2.022,0,4.07-0.558,5.902-1.725c5.12-3.266,6.625-10.064,3.36-15.186L415.129,300.895z"
                                                />
                                                <path d="M447.499,351.662c-3.265-5.12-10.062-6.624-15.186-3.362c-5.12,3.266-6.626,10.063-3.362,15.186l17.625,27.643
                                   c2.097,3.289,5.651,5.086,9.283,5.086c2.022,0,4.07-0.558,5.901-1.725c5.121-3.266,6.626-10.063,3.361-15.185L447.499,351.662z"
                                                />
                                                <path d="M497.49,430.071l-8.867-13.908c-3.263-5.12-10.059-6.627-15.185-3.363c-5.121,3.264-6.627,10.061-3.363,15.185
                                   l8.869,13.91c2.096,3.289,5.651,5.086,9.283,5.086c2.022,0,4.069-0.558,5.901-1.725
                                   C499.252,441.991,500.756,435.193,497.49,430.071z" />
                                                <path d="M36.061,76.979h35.74v41.856c-0.327,1.653-0.276,3.38,0.184,5.049l21.994,79.948v54.598
                                   c0,6.073,4.923,10.997,10.997,10.997h302.051c6.073,0,10.997-4.924,10.997-10.997v-54.595l21.994-79.951
                                   c0.459-1.667,0.51-3.394,0.184-5.047V76.979h35.74c6.073,0,10.997-4.924,10.997-10.997V10.997C486.938,4.924,482.014,0,475.941,0
                                   H36.062c-6.074,0-10.997,4.924-10.997,10.997v54.985C25.064,72.055,29.987,76.979,36.061,76.979z M93.795,109.97V76.979h35.74
                                   v32.991H93.795z M154.388,247.432h-38.417v-32.991h38.417V247.432z M214.798,247.432h-38.416v-32.991h38.416V247.432z
                                    M275.209,247.432h-38.417v-32.991h38.417V247.432z M335.62,247.432h-38.417v-32.991h38.417V247.432z M396.029,247.432h-38.416
                                   v-32.991h38.416V247.432z M398.345,192.447H113.657l-16.64-60.483h317.966L398.345,192.447z M151.529,109.97V76.979h35.74v32.991
                                   H151.529z M209.263,109.97V76.979h35.74v32.991H209.263z M266.998,109.97V76.979h35.74v32.991H266.998z M324.732,109.97V76.979
                                   h35.74v32.991H324.732z M418.206,109.97h-35.74V76.979h35.74V109.97z M464.943,21.994v32.991H47.058V21.994H464.943z"
                                                />
                                            </g>
                                        </g>
                                    </g>
                                </svg>