<svg version="1.1" id="Capa_1" xmlns="http://www.w3.org/2000/svg" xmlns:xlink="http://www.w3.org/1999/xlink" x="0px" y="0px"
                                    viewBox="0 0 480 480" style="enable-background:new 0 0 480 480;" xml:space="preserve">
                                    <g>
                                        <g>
                                            <g>
                                                <path d="M448,80h-16V67.2c-0.044-10.586-8.614-19.156-19.2-19.2h-41.6c-10.586,0.044-19.156,8.614-19.2,19.2V80h-16V40
                                   c0-22.091-17.909-40-40-40H184c-22.091,0-40,17.909-40,40v40h-16V67.2c-0.044-10.586-8.614-19.156-19.2-19.2H67.2
                                   C56.614,48.044,48.044,56.614,48,67.2V80H32C14.327,80,0,94.327,0,112v304c0,17.673,14.327,32,32,32v24c0,4.418,3.582,8,8,8h64
                                   c4.418,0,8-3.582,8-8v-24h256v24c0,4.418,3.582,8,8,8h64c4.418,0,8-3.582,8-8v-24c17.673,0,32-14.327,32-32V112
                                   C480,94.327,465.673,80,448,80z M368,67.2c0-1.767,1.433-3.2,3.2-3.2h41.6c1.767,0,3.2,1.433,3.2,3.2V80h-48V67.2z M160,40
                                   c0-13.255,10.745-24,24-24h112c13.255,0,24,10.745,24,24v40h-16V48c0-8.837-7.163-16-16-16h-96c-8.837,0-16,7.163-16,16v32h-16
                                   V40z M288,48v32h-96V48H288z M64,67.2c0-1.767,1.433-3.2,3.2-3.2h41.6c1.767,0,3.2,1.433,3.2,3.2V80H64V67.2z M96,464H48v-16h48
                                   V464z M432,464h-48v-16h48V464z M464,416c0,8.837-7.163,16-16,16H32c-8.837,0-16-7.163-16-16V112c0-8.837,7.163-16,16-16h416
                                   c8.837,0,16,7.163,16,16V416z" />
                                                <path d="M312,232h-40v-40c0-4.418-3.582-8-8-8h-48c-4.418,0-8,3.582-8,8v40h-40c-4.418,0-8,3.582-8,8v48c0,4.418,3.582,8,8,8h40
                                   v40c0,4.418,3.582,8,8,8h48c4.418,0,8-3.582,8-8v-40h40c4.418,0,8-3.582,8-8v-48C320,235.582,316.418,232,312,232z M304,280h-40
                                   c-4.418,0-8,3.582-8,8v40h-32v-40c0-4.418-3.582-8-8-8h-40v-32h40c4.418,0,8-3.582,8-8v-40h32v40c0,4.418,3.582,8,8,8h40V280z"
                                                />
                                                <path d="M240,128c-75.111,0-136,60.889-136,136s60.889,136,136,136s136-60.889,136-136S315.111,128,240,128z M240,384
                                   c-66.274,0-120-53.726-120-120s53.726-120,120-120s120,53.726,120,120S306.274,384,240,384z"
                                                />
                                            </g>
                                        </g>
                                    </g>
                                </svg>