<svg version="1.1" id="Layer_1" xmlns="http://www.w3.org/2000/svg" xmlns:xlink="http://www.w3.org/1999/xlink" x="0px" y="0px"
                                    viewBox="0 0 512 512" style="enable-background:new 0 0 512 512;" xml:space="preserve">
                                    <g>
                                        <g>
                                            <g>
                                                <path d="M501.333,66.667H10.667C4.777,66.667,0,71.443,0,77.333v357.333c0,5.89,4.777,10.667,10.667,10.667h490.667
                                   c5.89,0,10.667-4.777,10.667-10.667V77.333C512,71.443,507.224,66.667,501.333,66.667z M490.667,424H21.333V88h469.333V424z"
                                                />
                                                <path d="M53.333,402.667h405.333c5.89,0,10.667-4.777,10.667-10.667V120c0-5.89-4.777-10.667-10.667-10.667H53.333
                                   c-5.89,0-10.667,4.777-10.667,10.667v272C42.667,397.89,47.443,402.667,53.333,402.667z M64,130.667h384v250.667H64V130.667z"
                                                />
                                                <path d="M157.395,152h-44.567c-15.161,0-27.494,12.334-27.494,27.493v59.679c0,15.162,12.334,27.494,27.493,27.494h50.729v57.04
                                   c0,8.249-6.711,14.96-14.96,14.96H96c-5.89,0-10.667,4.777-10.667,10.667S90.11,360,96,360h52.595
                                   c20.013,0,36.293-16.282,36.293-36.293V179.493C184.889,164.334,172.556,152,157.395,152z M163.554,245.333h-50.729
                                   c-3.395,0-6.159-2.764-6.159-6.16v-59.679c0-3.397,2.764-6.16,6.16-6.16h44.568c3.397,0,6.16,2.764,6.16,6.16V245.333z"
                                                />
                                                <path d="M295.111,338.667h-28.445v-176c0-5.89-4.777-10.667-10.667-10.667c-3.385,0-6.395,1.581-8.349,4.039
                                   c-0.139,0.165-0.285,0.364-0.433,0.579c-0.033,0.048-0.067,0.095-0.099,0.143c-0.016,0.025-0.032,0.045-0.048,0.07
                                   l-39.111,59.857c-3.222,4.931-1.838,11.541,3.094,14.764c1.801,1.178,3.823,1.739,5.824,1.739c3.482,0,6.894-1.702,8.94-4.833
                                   l19.516-29.867v140.175h-28.445c-5.89,0-10.667,4.777-10.667,10.667S210.998,360,216.889,360h78.223
                                   c5.89,0,10.667-4.776,10.667-10.667S301.002,338.667,295.111,338.667z" />
                                                <path d="M416,338.667h-1.333c-5.89,0-10.667,4.777-10.667,10.667S408.777,360,414.667,360H416c5.89,0,10.667-4.776,10.667-10.667
                                   S421.89,338.667,416,338.667z" />
                                                <path d="M376.889,152c-3.714,0-6.982,1.902-8.893,4.782c-0.012,0.018-0.025,0.032-0.036,0.05l-39.11,59.857
                                   c-3.222,4.931-1.837,11.541,3.094,14.764c1.801,1.178,3.823,1.739,5.824,1.739c3.482,0,6.894-1.702,8.94-4.833l19.515-29.867
                                   v140.175h-28.444c-5.89,0-10.667,4.777-10.667,10.667S331.888,360,337.778,360H376.8c0.015,0,0.03-0.002,0.045-0.002
                                   c0.015,0,0.029,0.002,0.045,0.002c5.89,0,10.667-4.776,10.667-10.667V162.667C387.555,156.777,382.779,152,376.889,152z"
                                                />
                                            </g>
                                        </g>
                                    </g>
                                </svg>