                                <svg version="1.1" id="Capa_1" xmlns="http://www.w3.org/2000/svg" xmlns:xlink="http://www.w3.org/1999/xlink" x="0px" y="0px"
                                    viewBox="0 0 480.003 480.003" style="enable-background:new 0 0 480.003 480.003;" xml:space="preserve">
                                    <g>
                                        <g>
                                            <path d="M379.92,6.851c-0.6-4.112-4.448-7.12-8.384-6.832l-136,8C231.304,8.267,228,11.771,228,16.003v24
                               c0,2.448,1.12,4.752,3.032,6.272c1.432,1.128,3.184,1.728,4.968,1.728h-24c-57.344,0-104,46.656-104,104v64c-4.416,0-8,3.584-8,8
                               v32c0,4.416,3.584,8,8,8v112c0,4.416,3.584,8,8,8h32c4.416,0,8-3.584,8-8v-112h16v208c0,4.416,3.584,8,8,8h176
                               c4.416,0,8-3.584,8-8v-48v-120v-48v-32v-72c0-22.056-17.944-40-40-40h-32V68.947c4.288-4.912,7.048-11.096,7.696-17.944
                               l61.768,20.592l5.064-15.176l-68.416-22.808l75.72-17.816C377.872,14.843,380.512,10.963,379.92,6.851z M284,48.003
                               c0,8.824-7.176,16-16,16c-8.824,0-16-7.176-16-16c0-1.2,0.168-2.432,0.496-3.664l9.224-2.168l6.736-1.584l15.336,5.112
                               C283.904,46.459,284,47.227,284,48.003z M276,78.867v33.136h-16V78.867c2.576,0.672,5.224,1.136,8,1.136
                               S273.424,79.539,276,78.867z M244,23.547l36-2.12l-25.36,5.968L244,29.899V23.547z M124,152.003c0-48.52,39.48-88,88-88h28.448
                               c1.032,1.768,2.208,3.408,3.552,4.944v11.056h-32c-39.696,0-72,32.304-72,72v64h-16V152.003z M244,96.003v16h-32
                               c-22.056,0-40,17.944-40,40v64h-16v-64c0-30.88,25.12-56,56-56H244z M140,368.003h-16v-32h16V368.003z M140,320.003h-16v-56h16
                               V320.003z M348,416.003H236v-104h112V416.003z M348,296.003H228c-4.416,0-8,3.584-8,8v120c0,4.416,3.584,8,8,8h120v32H188v-200
                               h160V296.003z M348,248.003H116v-16h232V248.003z M324,128.003c13.232,0,24,10.768,24,24v64H188v-64c0-13.232,10.768-24,24-24H324
                               z" />
                                        </g>
                                    </g>
                                    <g>
                                        <g>
                                            <rect x="252" y="384.003" width="16" height="16" />
                                        </g>
                                    </g>
                                    <g>
                                        <g>
                                            <rect x="284" y="384.003" width="16" height="16" />
                                        </g>
                                    </g>
                                    <g>
                                        <g>
                                            <rect x="316" y="384.003" width="16" height="16" />
                                        </g>
                                    </g>
                                    <g>
                                        <g>
                                            <path d="M310.976,160.571l-40-16c-1.912-0.76-4.032-0.76-5.944,0l-40,16c-3.04,1.224-5.032,4.16-5.032,7.432
                               c0,3.272,1.992,6.208,5.024,7.432l40,16c0.96,0.376,1.968,0.568,2.976,0.568s2.016-0.192,2.976-0.568l40-16
                               c3.032-1.224,5.024-4.16,5.024-7.432C316,164.731,314.008,161.795,310.976,160.571z M268,175.387l-18.464-7.384L268,160.619
                               l18.464,7.384L268,175.387z" />
                                        </g>
                                    </g>
                                </svg>