<svg xmlns="http://www.w3.org/2000/svg" width="186" height="184.2" viewBox="0 0 49.212 48.736"><rect ry="3.6445" rx="3.6588" y="7.3165" x="6.6725" height="41.3329" width="36.3699" fill="#ff7f2a" fill-rule="evenodd"/><path d="M14.5785 12.3582c-1.1128-5.6574-4.34-9.696-8.148-10.1965L6.766 15.927z" fill="#ff7f2a" fill-rule="evenodd" paint-order="markers fill stroke"/><path d="M17.765 18.126a2.0514 2.0434 0 0 1-2.0244 2.0433 2.0514 2.0434 0 0 1-2.0778-1.9894 2.0514 2.0434 0 0 1 1.9696-2.0957 2.0514 2.0434 0 0 1 2.1297 1.9341" fill="#4d4d4d" fill-rule="evenodd"/><ellipse ry=".4772" rx=".4791" cy="17.9584" cx="14.4226" fill="#fff" fill-rule="evenodd"/><path d="M36.0199 18.1264a2.0513 2.0433 0 0 1-2.0243 2.0432 2.0513 2.0433 0 0 1-2.0777-1.9893 2.0513 2.0433 0 0 1 1.9695-2.0956 2.0513 2.0433 0 0 1 2.1296 1.934" fill="#4d4d4d" fill-rule="evenodd"/><ellipse ry=".4773" rx=".4792" cy="17.9512" cx="32.7122" fill="#fff" fill-rule="evenodd"/><path d="M24.9338 33.444c-.3475 1.1278-3.4755 3.0254-4.864.1835M29.6387 33.5376c-.3474 1.1278-3.3908 2.7597-4.7792-.0823" fill="none" stroke="#000" stroke-width=".1766"/><path d="M24.8034 33.5265c-1.1627.002-3.3623-1.9025-2.7842-2.4107.578-.5082 4.952-.5155 5.5367-.0092.5847.5062-1.5898 2.418-2.7525 2.42z" fill="#4d4d4d" fill-rule="evenodd" paint-order="markers fill stroke"/><path d="M6.6688 30.3333a5.5552 5.577 90 0 1 4.9773 2.7048 5.5552 5.577 90 0 1 .0276 5.6477 5.5552 5.577 90 0 1-4.9505 2.753" fill="#a40" fill-opacity=".3255" fill-rule="evenodd" paint-order="markers fill stroke"/><path d="M43.0595 41.5792a5.577 5.5552 0 0 1-4.9539-2.747 5.577 5.5552 0 0 1 .0207-5.6477 5.577 5.5552 0 0 1 4.974-2.711" fill="#a40" fill-opacity=".3262" fill-rule="evenodd" paint-order="markers fill stroke"/><path d="M11.7316 10.5007c-.5554-3.6155-2.1663-6.1965-4.067-6.5164l.1203 9.0573z" fill="#a40" fill-opacity=".3255" fill-rule="evenodd" paint-order="markers fill stroke"/><path d="M35.138 10.5441C36.2462 4.8858 39.4703.8448 43.278.3413l-.325 13.7655z" fill="#ff7f2a" fill-rule="evenodd" paint-order="markers fill stroke"/><path d="M38.2443 8.1771c.5526-3.616 2.1615-6.1981 4.062-6.5195l-.1132 9.0574z" fill="#a40" fill-opacity=".3255" fill-rule="evenodd" paint-order="markers fill stroke"/><path d="M10.1905 35.4934s-1.7761-1.578-4.2078-2.5676c-1.7675-.7193-4.0143-1.0145-5.5302-.7192M10.2005 34.0188s-1.776-1.5779-4.2078-2.5676c-1.7675-.7193-4.0142-1.0144-5.5301-.7192M9.9567 36.9748s-1.7761-1.5779-4.2078-2.5676c-1.7675-.7193-4.0142-1.0145-5.5302-.7192M39.1648 33.4251s1.776-1.5779 4.2078-2.5675c1.7675-.7194 4.0142-1.0145 5.5301-.7193M39.1833 36.455s1.7761-1.5779 4.2078-2.5675c1.7675-.7194 4.0143-1.0145 5.5302-.7193M39.0826 34.8486s1.7761-1.5778 4.2078-2.5675c1.7675-.7193 4.0143-1.0145 5.5302-.7192" fill="none" stroke="#4d4d4d" stroke-width=".1136"/><path d="M11.9152 48.6494a1.8787 2.8226 0 0 1 .9394-2.4445 1.8787 2.8226 0 0 1 1.8787 0 1.8787 2.8226 0 0 1 .9394 2.4445h-1.8788zM33.8983 48.6372a1.8787 2.8226 0 0 1 .9393-2.4445 1.8787 2.8226 0 0 1 1.8788 0 1.8787 2.8226 0 0 1 .9393 2.4445H35.777z" fill="#4d4d4d" fill-rule="evenodd" paint-order="markers fill stroke"/><path d="M12.5843 48.6331a.389 1.0153 0 0 1 .1944-.8792.389 1.0153 0 0 1 .389 0 .389 1.0153 0 0 1 .1944.8792h-.389zM14.5158 48.6545a.389 1.0153 0 0 1 .1945-.8792.389 1.0153 0 0 1 .3889 0 .389 1.0153 0 0 1 .1944.8792h-.3889zM34.4847 48.6338a.389 1.0153 0 0 1 .1944-.8792.389 1.0153 0 0 1 .389 0 .389 1.0153 0 0 1 .1944.8792h-.389zM36.406 48.619a.389 1.0153 0 0 1 .1945-.8793.389 1.0153 0 0 1 .389 0 .389 1.0153 0 0 1 .1944.8793h-.3889z" fill="#3e3e3e" fill-rule="evenodd" paint-order="markers fill stroke"/><path d="M10.639 10.04a3.5342 4.0767 0 0 0-2.7467 1.5934 3.5342 4.0767 0 0 0-.6925 1.917l4.8405-3.1989a3.5342 4.0767 0 0 0-.815-.266 3.5342 4.0767 0 0 0-.5863-.0455zM39.3715 7.7536a3.8868 3.4767 90 0 1 2.702 1.5192 3.8868 3.4767 90 0 1 .6812 1.8277L37.993 8.0507a3.8868 3.4767 90 0 1 .8017-.2537 3.8868 3.4767 90 0 1 .5768-.0435z" fill="#ff7f2a" fill-rule="evenodd" paint-order="markers fill stroke"/></svg>